<?xml version="1.0" encoding="UTF-8"?>
<svg width="724px" height="571px" viewBox="0 0 724 571" version="1.1" xmlns="http://www.w3.org/2000/svg" xmlns:xlink="http://www.w3.org/1999/xlink">
    <!-- Generator: Sketch 52.2 (67145) - http://www.bohemiancoding.com/sketch -->
    <title>Group 3 Copy</title>
    <desc>Created with Sketch.</desc>
    <g id="Page-1" stroke="none" stroke-width="1" fill="none" fill-rule="evenodd">
        <g id="4899917" transform="translate(-2560.000000, -2256.000000)">
            <g id="Group-3-Copy" transform="translate(2553.000000, 2201.000000)">
                <polygon id="Polygon" fill="#4B2A0B" transform="translate(168.455709, 283.030683) rotate(-305.000000) translate(-168.455709, -283.030683) " points="113.848713 172 237.058483 181.917021 290.911417 295.980641 220.885823 394.061366 102.986953 382.514781 46 271.604995"></polygon>
                <path d="M7.109305,563.82 L17.819305,563.82 L17.819305,588.13 L45.954305,588.13 L45.954305,563.82 L56.664305,563.82 L56.664305,624 L45.954305,624 L45.954305,597.31 L17.819305,597.31 L17.819305,624 L7.109305,624 L7.109305,563.82 Z M113.080015,563.82 L122.345015,563.82 L148.270015,624 L136.030015,624 L130.420015,610.23 L104.325015,610.23 L98.885015,624 L86.900015,624 L113.080015,563.82 Z M126.680015,601.05 L117.415015,576.57 L107.980015,601.05 L126.680015,601.05 Z M220.410725,577.93 C218.82405,575.776656 216.755738,574.204172 214.205725,573.2125 C211.655712,572.220828 209.162404,571.725 206.725725,571.725 C203.609043,571.725 200.775738,572.291661 198.225725,573.425 C195.675712,574.558339 193.479901,576.116657 191.638225,578.1 C189.796549,580.083343 188.379897,582.406653 187.388225,585.07 C186.396553,587.733347 185.900725,590.623318 185.900725,593.74 C185.900725,597.026683 186.382387,600.029986 187.345725,602.75 C188.309063,605.470014 189.683216,607.80749 191.468225,609.7625 C193.253234,611.71751 195.392379,613.233328 197.885725,614.31 C200.379071,615.386672 203.184043,615.925 206.300725,615.925 C209.530741,615.925 212.392379,615.287506 214.885725,614.0125 C217.379071,612.737494 219.390717,611.051677 220.920725,608.955 L229.505725,614.99 C226.842378,618.33335 223.584078,620.925824 219.730725,622.7675 C215.877372,624.609176 211.372417,625.53 206.215725,625.53 C201.512368,625.53 197.191578,624.750841 193.253225,623.1925 C189.314872,621.634159 185.929072,619.452514 183.095725,616.6475 C180.262377,613.842486 178.0524,610.499186 176.465725,606.6175 C174.87905,602.735814 174.085725,598.443357 174.085725,593.74 C174.085725,588.923309 174.92155,584.574186 176.593225,580.6925 C178.2649,576.810814 180.559877,573.510014 183.478225,570.79 C186.396573,568.069986 189.839038,565.973341 193.805725,564.5 C197.772411,563.026659 202.079035,562.29 206.725725,562.29 C208.652401,562.29 210.664048,562.474165 212.760725,562.8425 C214.857402,563.210835 216.869049,563.777496 218.795725,564.5425 C220.722401,565.307504 222.535716,566.256661 224.235725,567.39 C225.935733,568.523339 227.380719,569.883325 228.570725,571.47 L220.410725,577.93 Z M260.421435,563.82 L271.131435,563.82 L271.131435,589.83 L271.386435,589.83 L296.546435,563.82 L310.996435,563.82 L282.861435,591.615 L312.866435,624 L297.821435,624 L271.386435,593.825 L271.131435,593.825 L271.131435,624 L260.421435,624 L260.421435,563.82 Z M361.122145,563.82 L370.387145,563.82 L396.312145,624 L384.072145,624 L378.462145,610.23 L352.367145,610.23 L346.927145,624 L334.942145,624 L361.122145,563.82 Z M374.722145,601.05 L365.457145,576.57 L356.022145,601.05 L374.722145,601.05 Z M433.602855,573.17 L415.157855,573.17 L415.157855,563.82 L462.757855,563.82 L462.757855,573.17 L444.312855,573.17 L444.312855,624 L433.602855,624 L433.602855,573.17 Z M494.013565,563.82 L504.723565,563.82 L504.723565,588.13 L532.858565,588.13 L532.858565,563.82 L543.568565,563.82 L543.568565,624 L532.858565,624 L532.858565,597.31 L504.723565,597.31 L504.723565,624 L494.013565,624 L494.013565,563.82 Z M578.224275,593.74 C578.224275,588.923309 579.031767,584.574186 580.646775,580.6925 C582.261783,576.810814 584.500094,573.510014 587.361775,570.79 C590.223456,568.069986 593.623422,565.973341 597.561775,564.5 C601.500128,563.026659 605.792585,562.29 610.439275,562.29 C615.142632,562.29 619.477589,563.026659 623.444275,564.5 C627.410961,565.973341 630.839261,568.069986 633.729275,570.79 C636.619289,573.510014 638.871767,576.810814 640.486775,580.6925 C642.101783,584.574186 642.909275,588.923309 642.909275,593.74 C642.909275,598.443357 642.101783,602.735814 640.486775,606.6175 C638.871767,610.499186 636.619289,613.842486 633.729275,616.6475 C630.839261,619.452514 627.410961,621.634159 623.444275,623.1925 C619.477589,624.750841 615.142632,625.53 610.439275,625.53 C605.792585,625.53 601.500128,624.750841 597.561775,623.1925 C593.623422,621.634159 590.223456,619.452514 587.361775,616.6475 C584.500094,613.842486 582.261783,610.499186 580.646775,606.6175 C579.031767,602.735814 578.224275,598.443357 578.224275,593.74 Z M589.869275,593.74 C589.869275,596.970016 590.365103,599.93082 591.356775,602.6225 C592.348447,605.31418 593.765099,607.651657 595.606775,609.635 C597.448451,611.618343 599.630096,613.162494 602.151775,614.2675 C604.673454,615.372506 607.46426,615.925 610.524275,615.925 C613.58429,615.925 616.389262,615.372506 618.939275,614.2675 C621.489288,613.162494 623.685099,611.618343 625.526775,609.635 C627.368451,607.651657 628.785103,605.31418 629.776775,602.6225 C630.768447,599.93082 631.264275,596.970016 631.264275,593.74 C631.264275,590.623318 630.768447,587.733347 629.776775,585.07 C628.785103,582.406653 627.382617,580.083343 625.569275,578.1 C623.755933,576.116657 621.574288,574.558339 619.024275,573.425 C616.474262,572.291661 613.640957,571.725 610.524275,571.725 C607.407593,571.725 604.588454,572.291661 602.066775,573.425 C599.545096,574.558339 597.377617,576.116657 595.564275,578.1 C593.750933,580.083343 592.348447,582.406653 591.356775,585.07 C590.365103,587.733347 589.869275,590.623318 589.869275,593.74 Z M677.564985,563.82 L691.759985,563.82 L719.724985,608.87 L719.894985,608.87 L719.894985,563.82 L730.604985,563.82 L730.604985,624 L717.004985,624 L688.444985,577.505 L688.274985,577.505 L688.274985,624 L677.564985,624 L677.564985,563.82 Z" id="HACKATHON" fill="#000000"></path>
                <polygon id="Polygon" fill="#FFD85F" transform="translate(382.455709, 164.030683) rotate(-305.000000) translate(-382.455709, -164.030683) " points="327.848713 53 451.058483 62.9170212 504.911417 176.980641 434.885823 275.061366 316.986953 263.514781 260 152.604995"></polygon>
                <polygon id="Polygon-Copy" fill="#006F62" transform="translate(593.455709, 284.030683) rotate(-305.000000) translate(-593.455709, -284.030683) " points="538.848713 173 662.058483 182.917021 715.911417 296.980641 645.885823 395.061366 527.986953 383.514781 471 272.604995"></polygon>
                <g id="Group" transform="translate(270.000000, 287.000000)">
                    <path d="M70.987156,161.298838 C58.5834862,149.833157 51.1412844,134.044351 51.1412844,116 C51.1412844,97.9556494 58.3926606,82.1668427 70.2238532,70.7011616 C80.5284404,60.5512144 80.5284404,44.7624076 70.2238532,34.6124604 C59.9192661,24.4625132 43.8899083,24.4625132 33.5853211,34.6124604 C13.1669725,55.4762408 0,84.2344245 0,116 C0,147.765576 13.1669725,176.523759 34.3486239,197.38754 C44.653211,207.537487 60.6825688,207.537487 70.987156,197.38754 C80.3376147,187.237592 80.3376147,171.448786 70.987156,161.298838 Z" id="Path" fill="#FFD85F"></path>
                    <path d="M70.7011616,69.9314565 C82.1668427,57.6793146 98.1436114,50.5165239 116,50.5165239 C133.856389,50.5165239 149.833157,57.6793146 161.298838,69.3659731 C171.448786,79.5446756 187.237592,79.5446756 197.38754,69.3659731 C207.537487,59.1872705 207.537487,43.3537332 197.38754,33.1750306 C176.523759,13.00612 147.765576,0 116,0 C84.2344245,0 55.4762408,13.00612 34.6124604,33.9290086 C24.4625132,44.1077111 24.4625132,59.9412485 34.6124604,70.119951 C44.7624076,79.1676867 60.5512144,79.1676867 70.7011616,69.9314565 Z" id="Path" fill="#4B2A0B"></path>
                    <path d="M161.298838,161.068543 C149.833157,173.320685 133.856389,180.483476 116,180.483476 C98.1436114,180.483476 82.1668427,173.320685 70.7011616,161.634027 C60.5512144,151.455324 44.7624076,151.455324 34.6124604,161.634027 C24.4625132,171.812729 24.4625132,187.646267 34.6124604,197.824969 C55.4762408,217.99388 84.2344245,231 116,231 C147.765576,231 176.523759,217.99388 197.38754,197.070991 C207.537487,186.892289 207.537487,171.058752 197.38754,160.880049 C187.237592,151.832313 171.448786,151.832313 161.298838,161.068543 Z" id="Path" fill="#006F62"></path>
                    <circle id="Oval" fill="#7F4209" cx="53" cy="52" r="26"></circle>
                    <circle id="Oval" fill="#0E9081" cx="53" cy="179" r="26"></circle>
                </g>
                <text id="A" font-family="Arial-Black, Arial Black" font-size="140" font-weight="700" fill="#FFFFFF">
                    <tspan x="114.051758" y="334">A</tspan>
                </text>
                <text id="M" font-family="Arial-Black, Arial Black" font-size="140" font-weight="700" fill="#FFFFFF">
                    <tspan x="316.430664" y="215">M</tspan>
                </text>
                <text id="V" font-family="Arial-Black, Arial Black" font-size="140" font-weight="700" fill="#FFFFFF">
                    <tspan x="539.051758" y="335">V</tspan>
                </text>
            </g>
        </g>
    </g>
</svg>