<?xml version="1.0" encoding="UTF-8"?>
<svg width="724px" height="571px" viewBox="0 0 724 571" version="1.1" xmlns="http://www.w3.org/2000/svg" xmlns:xlink="http://www.w3.org/1999/xlink">
    <!-- Generator: Sketch 52.2 (67145) - http://www.bohemiancoding.com/sketch -->
    <title>Group 3 Copy</title>
    <desc>Created with Sketch.</desc>
    <g id="Page-1" stroke="none" stroke-width="1" fill="none" fill-rule="evenodd">
        <g id="4899917" transform="translate(-2559.000000, -2256.000000)">
            <g id="Group-3-Copy" transform="translate(2553.000000, 2201.000000)">
                <polygon id="Polygon" fill="#4B2A0B" transform="translate(168.455709, 283.030683) rotate(-305.000000) translate(-168.455709, -283.030683) " points="113.848713 172 237.058483 181.917021 290.911417 295.980641 220.885823 394.061366 102.986953 382.514781 46 271.604995"></polygon>
                <text id="HACKATHON" font-family="AvenirNext-DemiBold, Avenir Next" font-size="85" font-weight="500" letter-spacing="24.28571" fill="#000000">
                    <tspan x="0.479305" y="624">HACKATHON</tspan>
                </text>
                <polygon id="Polygon" fill="#FFD85F" transform="translate(382.455709, 164.030683) rotate(-305.000000) translate(-382.455709, -164.030683) " points="327.848713 53 451.058483 62.9170212 504.911417 176.980641 434.885823 275.061366 316.986953 263.514781 260 152.604995"></polygon>
                <polygon id="Polygon-Copy" fill="#006F62" transform="translate(593.455709, 284.030683) rotate(-305.000000) translate(-593.455709, -284.030683) " points="538.848713 173 662.058483 182.917021 715.911417 296.980641 645.885823 395.061366 527.986953 383.514781 471 272.604995"></polygon>
                <g id="Group" transform="translate(270.000000, 287.000000)">
                    <path d="M70.987156,161.298838 C58.5834862,149.833157 51.1412844,134.044351 51.1412844,116 C51.1412844,97.9556494 58.3926606,82.1668427 70.2238532,70.7011616 C80.5284404,60.5512144 80.5284404,44.7624076 70.2238532,34.6124604 C59.9192661,24.4625132 43.8899083,24.4625132 33.5853211,34.6124604 C13.1669725,55.4762408 0,84.2344245 0,116 C0,147.765576 13.1669725,176.523759 34.3486239,197.38754 C44.653211,207.537487 60.6825688,207.537487 70.987156,197.38754 C80.3376147,187.237592 80.3376147,171.448786 70.987156,161.298838 Z" id="Path" fill="#FFD85F"></path>
                    <path d="M70.7011616,69.9314565 C82.1668427,57.6793146 98.1436114,50.5165239 116,50.5165239 C133.856389,50.5165239 149.833157,57.6793146 161.298838,69.3659731 C171.448786,79.5446756 187.237592,79.5446756 197.38754,69.3659731 C207.537487,59.1872705 207.537487,43.3537332 197.38754,33.1750306 C176.523759,13.00612 147.765576,0 116,0 C84.2344245,0 55.4762408,13.00612 34.6124604,33.9290086 C24.4625132,44.1077111 24.4625132,59.9412485 34.6124604,70.119951 C44.7624076,79.1676867 60.5512144,79.1676867 70.7011616,69.9314565 Z" id="Path" fill="#4B2A0B"></path>
                    <path d="M161.298838,161.068543 C149.833157,173.320685 133.856389,180.483476 116,180.483476 C98.1436114,180.483476 82.1668427,173.320685 70.7011616,161.634027 C60.5512144,151.455324 44.7624076,151.455324 34.6124604,161.634027 C24.4625132,171.812729 24.4625132,187.646267 34.6124604,197.824969 C55.4762408,217.99388 84.2344245,231 116,231 C147.765576,231 176.523759,217.99388 197.38754,197.070991 C207.537487,186.892289 207.537487,171.058752 197.38754,160.880049 C187.237592,151.832313 171.448786,151.832313 161.298838,161.068543 Z" id="Path" fill="#006F62"></path>
                    <circle id="Oval" fill="#7F4209" cx="53" cy="52" r="26"></circle>
                    <circle id="Oval" fill="#0E9081" cx="53" cy="179" r="26"></circle>
                </g>
                <text id="A" font-family="Arial-Black, Arial Black" font-size="140" font-weight="700" fill="#FFFFFF">
                    <tspan x="114.051758" y="334">A</tspan>
                </text>
                <text id="M" font-family="Arial-Black, Arial Black" font-size="140" font-weight="700" fill="#FFFFFF">
                    <tspan x="316.430664" y="215">M</tspan>
                </text>
                <text id="V" font-family="Arial-Black, Arial Black" font-size="140" font-weight="700" fill="#FFFFFF">
                    <tspan x="539.051758" y="335">V</tspan>
                </text>
            </g>
        </g>
    </g>
</svg>