<svg width="96" height="53" viewBox="0 0 96 53" fill="none" xmlns="http://www.w3.org/2000/svg">
<path fill-rule="evenodd" clip-rule="evenodd" d="M68.649 45.4326H68.8726C68.9185 45.4326 68.9672 45.4297 69.0131 45.4269C69.059 45.424 69.0991 45.4154 69.1335 45.4011C69.1679 45.3839 69.1966 45.3609 69.2195 45.3265C69.2396 45.295 69.251 45.252 69.251 45.1947C69.251 45.1459 69.2424 45.1058 69.2224 45.0771C69.2023 45.0485 69.1765 45.0255 69.1478 45.0112C69.1163 44.994 69.0819 44.9854 69.0446 44.9796C69.0074 44.9768 68.9701 44.9739 68.9328 44.9739H68.649V45.4326ZM68.434 44.7962H68.9701C69.3026 44.7962 69.4689 44.9338 69.4689 45.2033C69.4689 45.3323 69.4317 45.4269 69.36 45.4871C69.2883 45.5473 69.1994 45.5817 69.0905 45.5932L69.5005 46.221H69.2682L68.8812 45.6103H68.649V46.221H68.4311L68.434 44.7962ZM67.895 45.51C67.895 45.6591 67.9208 45.7967 67.9724 45.9228C68.0269 46.049 68.0957 46.1608 68.1874 46.2525C68.2763 46.3471 68.3824 46.4188 68.5028 46.4733C68.6261 46.5249 68.7579 46.5535 68.8984 46.5535C69.036 46.5535 69.1679 46.5277 69.2883 46.4733C69.4087 46.4188 69.5148 46.3471 69.6065 46.2525C69.6983 46.1608 69.7699 46.0518 69.8215 45.9257C69.8731 45.7967 69.8989 45.6591 69.9018 45.5129C69.9018 45.3667 69.8731 45.2291 69.8215 45.1001C69.7699 44.9739 69.6983 44.8621 69.6065 44.7704C69.5177 44.6758 69.4116 44.6041 69.2912 44.5496C69.1679 44.4952 69.0389 44.4694 68.8984 44.4694C68.7579 44.4694 68.6289 44.4952 68.5057 44.5496C68.3824 44.6041 68.2763 44.6758 68.1874 44.7675C68.0986 44.8621 68.0269 44.971 67.9753 45.1001C67.9208 45.2262 67.895 45.3638 67.895 45.51ZM67.68 45.51C67.68 45.338 67.7116 45.1775 67.7746 45.0284C67.8406 44.8764 67.9294 44.7503 68.0412 44.6414C68.1502 44.5324 68.2792 44.4493 68.4283 44.3862C68.5745 44.3231 68.7321 44.2916 68.8984 44.2916C69.0647 44.2916 69.2224 44.3231 69.3686 44.3862C69.5148 44.4493 69.6438 44.5324 69.7556 44.6414C69.8674 44.7503 69.9563 44.8793 70.0194 45.0284C70.0853 45.1775 70.1168 45.3409 70.1168 45.5129C70.1168 45.6878 70.0853 45.8483 70.0194 45.9974C69.9563 46.1464 69.8674 46.2726 69.7556 46.3815C69.6438 46.4905 69.5148 46.5736 69.3657 46.6367C69.2195 46.6997 69.0618 46.7313 68.8984 46.7313C68.7321 46.7313 68.5745 46.6997 68.4283 46.6367C68.2792 46.5736 68.1502 46.4876 68.0384 46.3815C67.9266 46.2726 67.8406 46.1436 67.7746 45.9945C67.7116 45.8483 67.68 45.6849 67.68 45.51ZM39.2757 46.4953C39.2757 46.4953 34.0007 51.2514 22.3499 48.5595C10.6904 45.8675 2.43681 50.0817 0 51.5754C0 51.5754 3.25386 53.4675 7.58278 50.7526C12.4879 47.6736 18.9584 49.0182 22.0746 50.185C34.683 54.9038 45.3849 47.6191 45.3849 47.6191C39.0119 43.2386 33.4846 37.4046 29.3507 30.2547C29.3507 30.2547 32.2175 39.4659 38.8657 44.8784C38.8657 44.8784 32.4297 42.6509 29.5198 44.3481C29.5198 44.3481 31.4607 46.2631 34.058 45.4231C36.1565 44.738 38.7367 46.0223 39.2757 46.4953ZM41.5617 36.0162C40.1943 37.1085 38.9873 38.0058 38.0843 38.6508C39.6438 40.2677 41.3009 41.7728 43.0382 43.1432C44.1935 42.3118 45.3058 41.4231 46.378 40.4713C44.6895 39.1095 43.0783 37.6216 41.5617 36.0162ZM34.8253 26.9803C30.6455 19.7673 28.5269 11.9265 28.2717 4.14304C26.9759 4.71354 25.7059 5.34424 24.4703 6.02081C24.6595 13.9476 26.781 21.9432 31.0382 29.2881C32.8185 32.3642 34.8884 35.1651 37.1876 37.685C38.105 36.9654 39.2603 36.0137 40.5246 34.8813C38.4089 32.4903 36.4909 29.8528 34.8253 26.9803ZM47.9574 26.9281C50.4515 23.5825 52.3752 19.8728 52.593 16.2147C52.831 12.0205 50.807 5.7192 47.9201 5.72493C45.0361 5.73067 43.0321 12.0377 43.2902 16.2319C43.5166 19.8871 45.4517 23.5911 47.9574 26.9281ZM54.3844 35.9944C55.7547 37.0838 56.9674 37.9754 57.8704 38.6176C56.3166 40.2402 54.6653 41.751 52.9309 43.1271C51.7727 42.3015 50.6603 41.4127 49.5824 40.4667C51.2681 39.0963 52.8735 37.6056 54.3844 35.9944ZM61.0893 26.9358C65.2491 19.7085 67.3419 11.862 67.5655 4.07567C68.867 4.6433 70.137 5.26827 71.3755 5.94198C71.215 13.8688 69.1164 21.8701 64.885 29.2322C63.1133 32.3111 61.0549 35.1206 58.7643 37.6492C57.8412 36.9325 56.6858 35.9836 55.4158 34.8569C57.5287 32.4574 59.438 29.8141 61.0893 26.9358ZM47.9193 4.52973C51.6433 4.52399 55.7601 10.3838 55.545 16.1662C55.3845 20.4894 52.6753 24.8757 49.3469 28.6771C50.6169 30.1965 51.9787 31.6213 53.2974 32.8942C55.029 30.5205 56.5857 27.969 57.9618 25.2627C61.7087 17.8777 63.6467 10.2405 63.5005 2.50861C58.6154 0.874509 53.3519 -0.00847695 47.9107 6.13451e-05C42.4723 0.00872406 37.2145 0.911777 32.3323 2.56021C32.209 10.2949 34.1756 17.9236 37.9484 25.2971C39.3302 27.9976 40.8984 30.5463 42.6385 32.9114C43.9516 31.6357 45.3076 30.208 46.5776 28.6828C43.2348 24.89 40.5113 20.5152 40.3336 16.192C40.0928 10.4096 44.1981 4.53546 47.9193 4.52973ZM47.9778 39.0241C49.4944 37.5477 50.9479 35.948 52.2752 34.2508C50.8676 33.041 49.3826 31.6707 47.9635 30.1914C46.5502 31.6764 45.0709 33.0496 43.6633 34.2651C44.9992 35.9594 46.4556 37.5534 47.9778 39.0241ZM47.9908 46.5717C49.235 45.812 50.4448 44.9978 51.6259 44.1263C50.3903 43.3694 49.149 42.5638 47.9822 41.6923C46.8182 42.5696 45.5797 43.378 44.3499 44.1406C45.5281 45.0064 46.7437 45.8177 47.9908 46.5717ZM56.7071 46.4659C56.7071 46.4659 61.9993 51.2019 73.6415 48.4727C85.2866 45.7434 93.5575 49.9261 96 51.414C96 51.414 92.749 53.3147 88.4144 50.6171C83.5006 47.5524 77.033 48.9199 73.9196 50.0982C61.3256 54.86 50.6008 47.6097 50.6008 47.6097C56.9594 43.2091 62.4695 37.3551 66.5748 30.1908C66.5748 30.1908 63.7366 39.4106 57.1085 44.8461C57.1085 44.8461 63.5417 42.5956 66.4515 44.2871C66.4515 44.2871 64.5221 46.2079 61.9191 45.3765C59.8205 44.697 57.249 45.9928 56.7071 46.4659Z" fill="black"/>
</svg>
