<svg width="15" height="15" viewBox="0 0 15 15" fill="none" xmlns="http://www.w3.org/2000/svg">
<path d="M3.95385 7.989H5.59809V14.7581C5.59809 14.8917 5.70638 15 5.84003 15H8.6279C8.76154 15 8.86983 14.8917 8.86983 14.7581V8.02089H10.76C10.8829 8.02089 10.9863 7.92866 11.0004 7.80658L11.2874 5.31455C11.2953 5.24598 11.2736 5.17732 11.2277 5.12589C11.1818 5.0744 11.1161 5.04494 11.0472 5.04494H8.86993V3.48281C8.86993 3.0119 9.12348 2.77311 9.62361 2.77311C9.69488 2.77311 11.0472 2.77311 11.0472 2.77311C11.1808 2.77311 11.2891 2.66477 11.2891 2.53118V0.243726C11.2891 0.110081 11.1808 0.00179032 11.0472 0.00179032H9.0853C9.07146 0.0011129 9.04074 0 8.99545 0C8.65504 0 7.47183 0.0668225 6.53719 0.926661C5.50161 1.8795 5.64556 3.02037 5.67996 3.21818V5.04489H3.95385C3.8202 5.04489 3.71191 5.15318 3.71191 5.28682V7.74702C3.71191 7.88066 3.8202 7.989 3.95385 7.989Z" fill="black"/>
</svg>
