<svg width="38" height="38" viewBox="0 0 38 38" fill="none" xmlns="http://www.w3.org/2000/svg">
<path  class="bg-icon" d="M36.8125 19C36.8125 28.8376 28.8376 36.8125 19 36.8125C9.16243 36.8125 1.1875 28.8376 1.1875 19C1.1875 9.16243 9.16243 1.1875 19 1.1875C28.8376 1.1875 36.8125 9.16243 36.8125 19Z" fill="white"/>
<path fill-rule="evenodd" clip-rule="evenodd" d="M19 2.33669C9.79711 2.33669 2.33669 9.79711 2.33669 19C2.33669 28.2029 9.79711 35.6633 19 35.6633C28.2029 35.6633 35.6633 28.2029 35.6633 19C35.6633 9.79711 28.2029 2.33669 19 2.33669ZM1.1875 19C1.1875 9.16243 9.16243 1.1875 19 1.1875C28.8376 1.1875 36.8125 9.16243 36.8125 19C36.8125 28.8376 28.8376 36.8125 19 36.8125C9.16243 36.8125 1.1875 28.8376 1.1875 19Z" fill="#626262"/>
<path fill-rule="evenodd" clip-rule="evenodd" d="M14.9553 10.4379C15.1744 10.2084 15.5381 10.1999 15.7676 10.419L24.0842 18.3575C24.1978 18.466 24.262 18.6161 24.262 18.7732C24.262 18.9302 24.1978 19.0804 24.0842 19.1888L15.7676 27.1273C15.5381 27.3464 15.1744 27.338 14.9553 27.1084C14.7361 26.8789 14.7446 26.5152 14.9741 26.296L22.8552 18.7732L14.9741 11.2503C14.7446 11.0312 14.7361 10.6675 14.9553 10.4379Z" fill="#626262"/>
</svg>
