<?xml version="1.0" encoding="UTF-8"?>
<svg width="298px" height="47px" viewBox="0 0 298 47" version="1.1" xmlns="http://www.w3.org/2000/svg" xmlns:xlink="http://www.w3.org/1999/xlink">
    <!-- Generator: Sketch 52.2 (67145) - http://www.bohemiancoding.com/sketch -->
    <title>Group</title>
    <desc>Created with Sketch.</desc>
    <g id="Page-1" stroke="none" stroke-width="1" fill="none" fill-rule="evenodd">
        <g id="4899917" transform="translate(-43.000000, -31.000000)" fill="#5B5C5C">
            <g id="Group" transform="translate(43.000000, 31.000000)">
                <path d="M147.061725,6.111671 C143.404674,9.77386123 139.503182,13.3083262 136.108187,17.2142221 C134.746519,18.7814251 133.45899,20.318532 131.960788,21.7528715 C131.103414,22.5735427 130.124187,23.3266811 130.008941,24.600263 C129.766704,27.2868968 133.62929,30.0175738 135.220717,31.6082666 C139.061282,35.4466295 142.897443,39.2901309 146.73654,43.1292279 C147.335527,43.7289491 148.266306,42.798904 147.666585,42.1991828 C144.814789,39.347387 141.96226,36.4977934 139.112666,33.6445295 C137.631347,32.1617425 136.155167,30.6738172 134.667241,29.1976367 C132.90845,27.4527928 130.507363,25.8877919 132.525275,22.9985594 C133.271072,21.9312464 134.628336,21.0224888 135.496721,20.0094957 C136.696164,18.6089227 137.839084,17.2039453 139.14056,15.8936608 C142.08191,12.9346933 145.043814,9.99481117 147.991771,7.0417161 C148.590758,6.44199483 147.660713,5.51194973 147.061725,6.111671" id="Fill-4"></path>
                <path d="M147.676862,6.88609687 C149.407759,7.32946486 151.076261,9.75844612 152.269831,10.9505481 C153.816481,12.4964637 155.35579,14.0482516 156.903174,15.5934331 C159.553105,18.2404281 161.799307,21.2133426 164.569623,23.7311443 C166.594141,25.570681 165.324963,27.1562354 163.665269,28.6683845 C162.124492,30.0711597 160.655652,31.531191 159.182408,33.0051694 C155.792551,36.3942919 152.402695,39.7848826 149.012838,43.1747391 C148.413117,43.7737264 149.343162,44.7045055 149.942883,44.1047842 C153.332006,40.7149277 156.722596,37.3250711 160.112453,33.9352145 C162.67283,31.3748378 165.777874,29.0552304 167.844967,26.0735073 C167.969022,25.8943983 167.968288,25.5890323 167.844967,25.4099234 C166.698376,23.7428891 165.134843,22.6197881 163.728398,21.1979275 C161.816924,19.265166 160.233572,17.0564007 158.300076,15.1295116 C156.294644,13.1299514 154.29802,11.1208484 152.294789,9.11835193 C150.989643,7.81320576 149.86434,6.0881813 148.027005,5.61765335 C147.206334,5.4077142 146.856191,6.67615772 147.676862,6.88609687" id="Fill-5"></path>
                <path d="M148.086463,18.4143987 C145.730153,20.6576645 144.038895,23.5219392 141.320697,25.4869989 C143.276214,28.2852088 146.76003,30.1152029 148.570938,33.1013303 C149.856265,31.2023353 155.028402,28.6837996 155.368269,26.901519 C155.899723,24.1099156 149.50392,20.0726243 148.086463,18.4143987" id="Fill-6"></path>
                <path d="M127.149805,24.7977232 C118.493852,26.8060921 109.415819,24.5929224 100.702611,24.7235839 C95.5987403,24.7999254 90.604244,23.7788577 85.490831,23.7340805 C80.4229294,23.6900373 75.3528256,23.7318783 70.2841899,23.7318783 C61.7875268,23.7318783 53.1814899,23.2209775 44.7589662,24.3881217 C39.670511,25.0935466 34.4352453,24.7757016 29.2792573,24.7757016 C24.1093223,24.7749676 18.9386532,24.7742335 13.7679841,24.7742335 C12.9216211,24.7734995 12.920153,26.0889224 13.7679841,26.0889224 C18.9386532,26.0896564 24.1093223,26.0903905 29.2792573,26.0903905 C33.8333219,26.0911245 38.7698281,26.638728 43.2849878,26.0925926 C47.9073193,25.5339783 52.5068952,24.8410323 57.1967596,24.9951835 C62.0356367,25.1537389 66.8935992,25.0473012 71.7354126,25.0473012 C76.7849629,25.0473012 81.8440559,24.9540765 86.8914041,25.0627163 C91.962976,25.1720902 96.8958119,25.9971658 101.982065,26.0177192 C104.021264,26.0257938 105.928334,26.4552148 107.933032,26.6372599 C110.326045,26.8552737 112.824027,26.6137702 115.234657,26.6989204 C119.365173,26.8442629 123.446508,27.0064886 127.499948,26.0661667 C128.32429,25.8745789 127.97488,24.6061354 127.149805,24.7977232" id="Fill-7"></path>
                <path d="M11.9614798,25.5816918 C11.9614798,25.5126908 11.9614798,25.4444239 11.9614798,25.3754229 C11.9614798,24.5290598 10.6460569,24.5275917 10.6460569,25.3754229 C10.6460569,25.4444239 10.6460569,25.5126908 10.6460569,25.5816918 C10.6460569,26.4280548 11.9614798,26.429523 11.9614798,25.5816918" id="Fill-8"></path>
                <path d="M9.0010442,24.7412011 C4.80960179,24.004946 0.783321285,19.8157058 2.25216126,15.3431211 C3.74962931,10.7846522 8.42261047,8.4290762 12.8643649,10.6275648 C17.3890674,12.8671604 18.7962469,20.0498687 12.8856525,21.6860727 C10.2496683,22.4157214 7.44705408,20.6892288 6.37827297,18.4099943 C5.58402766,16.7180023 5.5943044,17.3859905 6.20430241,15.6506892 C6.16099329,14.9137001 6.41791183,14.4160122 6.97505803,14.1590936 C8.18257515,13.2657512 9.29833565,14.0034744 10.3238076,16.3715293 C9.99274976,17.1408168 11.1261275,17.8117412 11.4593876,17.0351131 C14.18199,10.6906934 4.08435746,11.0379004 4.34861652,16.4588816 C4.67967441,23.2407969 14.7362,25.736577 17.7392107,19.3393054 C21.1606315,12.0508935 11.1099784,5.96192419 5.07899922,9.51914485 C-2.50670409,13.9924636 0.676149552,24.6090716 8.65163499,26.0096447 C9.47964673,26.1549871 9.83492837,24.8872777 9.0010442,24.7412011" id="Fill-9"></path>
                <path d="M126.679277,22.0494289 C121.773601,22.6065751 117.146131,21.6200079 112.254402,21.2757371 C107.01253,20.9072425 101.694316,21.1318627 96.4561142,20.6261002 C85.8343678,19.5991601 74.9887353,20.3787244 64.3060625,20.3860649 C63.4596995,20.386799 63.4582314,21.7022219 64.3060625,21.7014878 C75.0276401,21.6941473 85.7829841,21.1274584 96.4561142,21.9415231 C101.980597,22.3621355 107.57408,22.202846 113.083882,22.7056723 C117.715756,23.1270187 122.031988,23.8926359 126.679277,23.3648518 C127.510959,23.270159 127.520502,21.954002 126.679277,22.0494289" id="Fill-10"></path>
                <path d="M61.5335445,21.7014878 C62.3799076,21.7014878 62.3813757,20.3860649 61.5335445,20.3860649 C60.6871814,20.3860649 60.6857133,21.7014878 61.5335445,21.7014878" id="Fill-11"></path>
                <path d="M59.1889793,20.1673171 C54.5651797,20.3295428 51.5834566,16.0147795 51.797066,11.5715569 C52.0591229,6.13442664 58.0291756,3.61662498 62.7887751,5.12950813 C68.9401389,7.08502522 66.7027455,15.6029758 60.9778664,16.0287265 C58.2016781,16.2349954 54.7523632,12.541975 56.606581,10.0594078 C57.1806104,9.29085438 57.8640137,8.82179453 58.8909538,8.85482692 C59.8980745,8.8878593 62.6412304,10.5101163 60.0052462,11.6478984 C59.2300863,11.9818925 59.8988085,13.1160044 60.6688301,12.7834784 C62.5700273,11.9628072 62.7124335,8.87171014 60.8868438,7.85504678 C58.9592207,6.7811273 55.2030717,7.86312137 54.6620747,10.1188661 C53.9390325,13.1372919 56.6219961,16.5983516 59.4444298,17.213488 C63.1807593,18.0268187 66.1022901,15.8672349 67.4771713,12.4913253 C70.9756677,3.89996942 58.8946241,1.5421913 53.6116449,5.37688398 C49.9890935,8.0077298 49.7556647,12.3004715 51.4557314,16.1858139 C53.0823927,19.902324 55.0929638,21.6266144 59.1889793,21.48274 C60.0331402,21.4533779 60.0368105,20.137955 59.1889793,20.1673171" id="Fill-12"></path>
                <path d="M126.161769,28.4452324 C125.059222,29.659356 120.359815,28.5017545 118.82858,28.4599134 C116.02303,28.38504 113.218214,28.2573148 110.411195,28.260251 C104.544644,28.2675916 98.6780925,28.1413345 92.8232861,27.7625631 C82.4525858,27.0923728 72.0011397,26.7304847 61.5944709,26.7304847 C60.7481078,26.7304847 60.7466397,28.0459076 61.5944709,28.0459076 C72.9568767,28.0459076 84.381677,28.5847025 95.7213272,29.2416799 C102.103918,29.6116425 108.512934,29.354724 114.886716,29.7312932 C117.703277,29.8971892 120.581499,29.9999566 123.396592,30.0351911 C124.623929,30.0506062 126.1926,30.366249 127.091815,29.3752775 C127.659972,28.7498644 126.732129,27.8168831 126.161769,28.4452324" id="Fill-13"></path>
                <path d="M59.2021923,26.9477643 C59.129521,26.9477643 59.0568498,26.9477643 58.9841785,26.9477643 C58.1378155,26.9477643 58.1363474,28.2631873 58.9841785,28.2631873 C59.0568498,28.2631873 59.129521,28.2631873 59.2021923,28.2631873 C60.0485553,28.2631873 60.0492894,26.9477643 59.2021923,26.9477643" id="Fill-14"></path>
                <path d="M56.8517547,27.4065474 C53.3033427,27.9233207 49.6176627,29.9001254 49.0906127,33.6680192 C48.609808,37.0953125 49.9927638,39.9559169 53.2211287,41.4284271 C56.1382552,42.7577971 59.7989773,42.9559914 62.5002922,41.2199561 C64.9762529,39.6299974 67.2613598,36.9866727 66.3753578,33.6900408 C64.9850615,28.5157015 53.8935212,28.2940175 54.1526419,34.4593283 C54.236324,36.4610907 56.7225614,39.2181937 58.8058037,37.9578247 C60.5139449,36.9250122 60.5499135,34.454924 58.7243238,33.7142646 C57.9403552,33.3956856 57.5990206,34.6677994 58.3749146,34.981974 C58.3925319,35.4825981 58.4108832,35.9824882 58.4285005,36.4823783 C57.9432914,36.5242193 57.4580824,36.5660603 56.9721394,36.6071673 C53.9816076,35.6969416 56.1323828,32.4876621 57.4257841,31.7271832 C59.2139371,30.6752853 61.4461922,31.0951636 63.093407,32.2021155 C66.8796522,34.7470771 64.2392637,39.3877599 60.6446063,40.7017147 C57.5402964,41.8372946 52.4503731,40.7875989 50.8420631,37.6656717 C49.8936667,35.8254009 50.1146166,32.6755796 51.5629031,31.1487495 C52.5458,30.1130007 55.6383651,28.9025474 57.201898,28.674991 C58.0365162,28.5531382 57.6812345,27.2854287 56.8517547,27.4065474" id="Fill-15"></path>
                <path d="M170.334875,26.0661667 C178.699408,28.0070028 187.445649,26.1072737 195.85129,26.0177192 C200.706316,25.9663355 205.410127,25.2198037 210.249004,25.0810677 C215.524643,24.9298528 220.820101,25.0473012 226.097942,25.0473012 C230.724678,25.0473012 235.364627,25.1456643 239.989894,25.0216094 C244.920528,24.8902139 249.686734,25.4965416 254.549101,26.0925926 C259.076005,26.6482707 263.983884,26.0911245 268.554097,26.0903905 C273.724766,26.0903905 278.895435,26.0896564 284.066104,26.0889224 C284.911733,26.0889224 284.913202,24.7734995 284.066104,24.7742335 C278.895435,24.7742335 273.724766,24.7749676 268.554097,24.7757016 C263.667507,24.7757016 258.505646,25.2572404 253.685855,24.5268577 C245.064402,23.2202434 236.263841,23.7318783 227.549899,23.7318783 C222.481263,23.7318783 217.410425,23.6929735 212.342524,23.7340805 C207.448592,23.7737193 202.64862,24.8270853 197.770104,24.7382649 C188.855031,24.5753052 179.528888,26.8501353 170.684284,24.7977232 C169.860676,24.6061354 169.509065,25.8745789 170.334875,26.0661667" id="Fill-16"></path>
                <path d="M287.187298,25.5816918 C287.187298,25.5126908 287.187298,25.4444239 287.187298,25.3754229 C287.187298,24.5290598 285.871875,24.5275917 285.871875,25.3754229 C285.871875,25.4444239 285.871875,25.5126908 285.871875,25.5816918 C285.871875,26.4280548 287.187298,26.429523 287.187298,25.5816918" id="Fill-17"></path>
                <path d="M289.182454,26.0096447 C297.224004,24.5973268 300.27326,14.0585284 292.755089,9.51914485 C286.729249,5.88044431 276.694745,12.0964048 280.094878,19.3393054 C283.100091,25.7402472 293.155148,23.2415309 293.485472,16.4588816 C293.749731,11.0401026 283.649896,10.685555 286.375435,17.0351131 C286.707961,17.8110071 287.841339,17.1415508 287.510281,16.3715293 C287.554324,16.4735626 290.137457,13.2796982 291.174673,14.3565539 C291.411772,14.6024616 292.09224,16.79728 292.061409,17.1202633 C291.792012,19.9493034 288.670085,21.6912111 286.174305,21.7058921 C283.379031,21.7220413 280.886921,19.4787754 280.892794,16.5711917 C280.897932,13.9814528 282.743341,11.7308464 284.969724,10.6275648 C288.793406,8.73224007 293.264522,10.187133 295.170124,14.0900926 C297.514689,18.8922671 293.588974,23.9058489 288.83231,24.7412011 C287.999894,24.8872777 288.352974,26.1549871 289.182454,26.0096447" id="Fill-18"></path>
                <path d="M171.154812,23.3648518 C175.797697,23.8926359 180.116864,23.1277527 184.749473,22.7056723 C190.260008,22.202846 195.852758,22.3518587 201.377974,21.9415231 C212.053307,21.1480119 222.80498,21.6941473 233.528026,21.7014878 C234.375123,21.7022219 234.375857,20.386799 233.528026,20.3860649 C222.830672,20.3787244 212.018806,19.6630227 201.377974,20.6261002 C196.134634,21.1002984 190.823761,20.9065085 185.579687,21.2757371 C180.685021,21.6200079 176.065626,22.6073092 171.154812,22.0494289 C170.314321,21.954002 170.321662,23.270159 171.154812,23.3648518" id="Fill-19"></path>
                <path d="M236.300544,21.7014878 C237.146907,21.7014878 237.148375,20.3860649 236.300544,20.3860649 C235.453447,20.3860649 235.451979,21.7014878 236.300544,21.7014878" id="Fill-20"></path>
                <path d="M238.645109,21.48274 C242.741125,21.6266144 244.751696,19.902324 246.378357,16.1858139 C248.078424,12.3004715 247.844995,8.0077298 244.222444,5.37688398 C238.939465,1.5421913 226.858421,3.89996942 230.356917,12.4913253 C231.731798,15.8672349 234.653329,18.0268187 238.388925,17.213488 C241.212093,16.5983516 243.894322,13.1372919 243.17128,10.1188661 C242.631017,7.86312137 238.874868,6.7811273 236.947245,7.85504678 C235.121655,8.87171014 235.264061,11.9628072 237.165259,12.7834784 C237.933812,13.1152703 238.604736,11.9826266 237.829576,11.6478984 C235.425553,10.6106816 238.576108,8.11636964 240.549243,9.26369442 C243.976536,11.2566482 240.038342,15.8320003 237.385474,16.0301946 C231.162907,16.4948502 228.962951,7.05859932 235.045314,5.12950813 C239.625804,3.67681732 245.389588,5.98321173 246.030416,11.0958906 C246.600041,15.6404125 243.31075,20.3310109 238.645109,20.1673171 C237.798746,20.137955 237.800214,21.4533779 238.645109,21.48274" id="Fill-21"></path>
                <path d="M170.742274,29.3752775 C171.641489,30.366249 173.21016,30.0506062 174.436763,30.0351911 C177.042651,30.0021587 179.677167,29.8920508 182.289661,29.7936877 C188.885861,29.5463118 195.514359,29.6241214 202.113496,29.2416799 C213.451678,28.5847025 224.877946,28.0459076 236.239618,28.0459076 C237.085981,28.0459076 237.087449,26.7304847 236.239618,26.7304847 C225.832215,26.7304847 215.382971,27.0923728 205.010803,27.7625631 C199.15673,28.1413345 193.289445,28.2675916 187.422894,28.260251 C184.616609,28.2573148 181.810325,28.3762314 179.006242,28.4599134 C177.557222,28.5032226 172.774133,29.6578879 171.672319,28.4452324 C171.10196,27.8176171 170.174117,28.7498644 170.742274,29.3752775" id="Fill-22"></path>
                <path d="M238.63263,28.2631873 C238.704568,28.2631873 238.777239,28.2631873 238.849176,28.2631873 C239.696273,28.2631873 239.697741,26.9477643 238.849176,26.9477643 C238.777239,26.9477643 238.704568,26.9477643 238.63263,26.9477643 C237.785533,26.9477643 237.784065,28.2631873 238.63263,28.2631873" id="Fill-23"></path>
                <path d="M240.632191,28.674991 C244.693706,29.2666377 248.480685,32.168349 247.270232,36.5851457 C246.202185,40.4859031 240.757714,42.0061268 237.189482,40.7017147 C233.829722,39.4743782 231.004352,35.0774009 234.388336,32.3966395 C235.897549,31.2008672 237.991068,30.8448515 239.780689,31.4548495 C240.828183,31.6023942 241.468277,32.1933068 241.700972,33.2290555 C242.620006,34.0519289 242.590644,34.8197483 241.614354,35.5332478 C241.408085,36.4860485 240.914801,36.8229789 240.133035,36.5447728 C239.140595,36.7040623 238.915975,36.1836187 239.459174,34.981974 C240.2336,34.6677994 239.895201,33.3956856 239.109765,33.7142646 C237.284175,34.4541899 237.318676,36.9235441 239.029019,37.9578247 C241.135751,39.2321407 243.567668,36.4625588 243.681447,34.4593283 C244.033792,28.2859429 232.839484,28.550936 231.457997,33.6900408 C230.577133,36.9675873 232.862974,39.6329336 235.333062,41.2199561 C238.039516,42.9596616 241.689227,42.7379776 244.61296,41.4284271 C247.852336,39.9764704 249.222812,37.0872379 248.74421,33.6680192 C248.21716,29.9096681 244.522671,27.9225867 240.982334,27.4065474 C240.154322,27.2854287 239.796104,28.5531382 240.632191,28.674991" id="Fill-24"></path>
                <path d="M169.125889,20.4616724 C169.972252,20.4616724 169.973721,19.1462495 169.125889,19.1462495 C168.279526,19.1462495 168.278792,20.4616724 169.125889,20.4616724" id="Fill-25"></path>
                <path d="M165.402039,14.9533389 C165.402039,14.9004871 165.402039,14.8483694 165.402039,14.7962516 C165.402039,13.9498885 164.086616,13.9484204 164.086616,14.7962516 C164.086616,14.8483694 164.086616,14.9004871 164.086616,14.9533389 C164.086616,15.7989679 165.402039,15.8004361 165.402039,14.9533389" id="Fill-26"></path>
                <path d="M158.78969,9.96398094 C158.799966,10.005822 158.809509,10.048397 158.819786,10.0902381 C158.869701,10.3045815 159.064959,10.4991056 159.279303,10.5497552 C159.321878,10.560032 159.362985,10.5695746 159.40556,10.5798514 C160.229167,10.7729073 160.580045,9.50519784 159.754969,9.31140786 C159.713128,9.30113112 159.670553,9.29158843 159.628712,9.28131169 C159.782129,9.43399471 159.935546,9.58814583 160.088229,9.74082884 C160.077953,9.69825377 160.067676,9.65641275 160.058133,9.61383768 C159.864343,8.79023026 158.5959,9.13890541 158.78969,9.96398094" id="Fill-27"></path>
                <path d="M155.073914,4.78156703 C155.073914,4.72944927 155.073914,4.67733151 155.073914,4.62521375 C155.073914,3.77811663 153.758491,3.77664852 153.758491,4.62521375 C153.758491,4.67733151 153.758491,4.72944927 153.758491,4.78156703 C153.758491,5.62793009 155.073914,5.6293982 155.073914,4.78156703" id="Fill-28"></path>
                <path d="M148.778675,0.560762491 C148.79042,0.611412146 148.802899,0.6620618 148.814644,0.712711455 C148.779409,0.35963198 148.537906,0.055 148.157667,0.055 C147.828811,0.055 147.463986,0.357429821 147.499955,0.712711455 C147.530785,1.02688612 147.612265,1.26985765 147.84863,1.4908076 C148.466703,2.06777322 149.39895,1.13993028 148.778675,0.560762491" id="Fill-29"></path>
                <path d="M141.929961,6.03312733 C141.929961,5.98100957 141.929961,5.92889181 141.929961,5.87677405 C141.929961,5.03041098 140.614538,5.02894288 140.614538,5.87677405 C140.614538,5.92889181 140.614538,5.98100957 140.614538,6.03312733 C140.614538,6.8794904 141.929961,6.8809585 141.929961,6.03312733" id="Fill-30"></path>
                <path d="M136.232242,10.1019829 C136.232242,10.1541007 136.232242,10.2062184 136.232242,10.2583362 C136.232242,11.1046992 137.547665,11.1061674 137.547665,10.2583362 C137.547665,10.2062184 137.547665,10.1541007 137.547665,10.1019829 C137.547665,9.25561984 136.232242,9.25415173 136.232242,10.1019829" id="Fill-31"></path>
                <path d="M132.352038,15.2976098 C133.198401,15.2976098 133.199869,13.9821869 132.352038,13.9821869 C131.506409,13.9821869 131.504941,15.2976098 132.352038,15.2976098" id="Fill-32"></path>
                <path d="M128.283917,20.4616724 C129.13028,20.4616724 129.131748,19.1462495 128.283917,19.1462495 C127.437554,19.1462495 127.436085,20.4616724 128.283917,20.4616724" id="Fill-33"></path>
                <path d="M128.283917,32.5111518 C128.336034,32.5111518 128.388152,32.5111518 128.44027,32.5111518 C129.286633,32.5111518 129.288101,31.1949948 128.44027,31.1949948 C128.388152,31.1949948 128.336034,31.1949948 128.283917,31.1949948 C127.437554,31.1949948 127.436085,32.5111518 128.283917,32.5111518" id="Fill-34"></path>
                <path d="M133.102974,36.8604156 C133.102974,36.9125333 133.102974,36.9646511 133.102974,37.0175029 C133.102974,37.8631319 134.418397,37.8646 134.418397,37.0175029 C134.418397,36.9646511 134.418397,36.9125333 134.418397,36.8604156 C134.418397,36.0140525 133.102974,36.0125844 133.102974,36.8604156" id="Fill-35"></path>
                <path d="M138.454954,42.0560424 C139.301318,42.0560424 139.302786,40.7406195 138.454954,40.7406195 C137.608591,40.7406195 137.607857,42.0560424 138.454954,42.0560424" id="Fill-36"></path>
                <path d="M143.807669,45.6235398 C143.807669,45.5714221 143.807669,45.5193043 143.807669,45.4671865 C143.807669,44.6208235 142.492246,44.6193554 142.492246,45.4671865 C142.492246,45.5193043 142.492246,45.5714221 142.492246,45.6235398 C142.492246,46.4699029 143.807669,46.471371 143.807669,45.6235398" id="Fill-37"></path>
                <path d="M153.634436,46.5946919 C154.480799,46.5946919 154.482267,45.279269 153.634436,45.279269 C152.788073,45.279269 152.786605,46.5946919 153.634436,46.5946919" id="Fill-39"></path>
                <path d="M159.106801,41.7073673 C159.158918,41.6552495 159.211036,41.6031317 159.263154,41.551014 C159.862875,40.9512927 158.932096,40.0205136 158.333109,40.6202348 C158.280991,40.6730866 158.228139,40.7252044 158.176755,40.7773222 C157.577768,41.3763094 158.507079,42.3070885 159.106801,41.7073673" id="Fill-40"></path>
                <path d="M163.023707,36.8927139 C163.075091,36.8927139 163.127209,36.8927139 163.179326,36.8927139 C164.026423,36.8927139 164.027892,35.577291 163.179326,35.577291 C163.127209,35.577291 163.075091,35.577291 163.023707,35.577291 C162.17661,35.577291 162.175142,36.8927139 163.023707,36.8927139" id="Fill-41"></path>
                <path d="M168.187036,31.8850046 C169.033399,31.8850046 169.034867,30.5695817 168.187036,30.5695817 C167.340673,30.5695817 167.339204,31.8850046 168.187036,31.8850046" id="Fill-42"></path>
                <path d="M165.567935,10.5519574 C166.803346,12.4355373 168.664904,13.9322713 170.212288,15.5537943 C171.62534,17.0351131 172.942231,18.5949757 174.320782,20.0873054 C174.895546,20.7105163 175.824123,19.7782691 175.250827,19.1572603 C174.015416,17.8190817 172.905528,16.3362947 171.582765,15.0494999 C169.957571,13.4705519 167.949203,11.7866345 166.703515,9.88837349 C166.241061,9.18294859 165.102545,9.8413941 165.567935,10.5519574" id="Fill-43"></path>
                <path d="M173.944213,14.4461083 C174.384645,14.8887423 174.803789,15.3409189 175.20238,15.8217236 C175.564268,16.257017 176.027455,16.6012878 176.363652,17.0556666 C176.626443,17.4087461 176.808488,17.809539 177.095502,18.1494055 C177.413347,18.5252407 178.178231,18.9297038 178.287604,19.4207853 C178.471852,20.2465948 179.741029,19.8971856 179.556782,19.070642 C179.434929,18.5252407 179.119286,18.2455665 178.719962,17.8807421 C178.204656,17.4102142 177.883875,16.9624419 177.499966,16.3913487 C177.19827,15.9428423 176.786466,15.6271996 176.420908,15.2374174 C175.89239,14.6736648 175.421862,14.067337 174.874258,13.5160632 C174.277473,12.9148739 173.346694,13.8441849 173.944213,14.4461083" id="Fill-44"></path>
                <path d="M178.166486,14.8769974 C179.293991,16.3869444 180.63951,17.7089738 181.841889,19.1469835 C182.385822,19.7966204 183.312197,18.862171 182.771934,18.2169384 C181.642226,16.866281 180.361304,15.6316039 179.302066,14.2126795 C178.802176,13.5424891 177.659255,14.1972644 178.166486,14.8769974" id="Fill-45"></path>
                <path d="M183.534615,16.5139355 C184.198199,17.1701789 184.760483,17.9181788 185.414525,18.5824968 C186.009842,19.1873564 186.939887,18.2565773 186.34457,17.6524517 C185.690529,16.9881337 185.128244,16.2401338 184.46466,15.5838904 C183.861269,14.9885735 182.931223,15.9178845 183.534615,16.5139355" id="Fill-46"></path>
                <path d="M128.524686,11.5803656 C127.466182,13.0103007 126.018629,14.0702732 124.968933,15.5046127 C124.50281,16.1417707 124.191571,16.8736215 123.722511,17.4997687 C123.616808,17.6407068 123.215281,18.4268776 123.119854,18.4900061 C122.415163,18.9531935 123.073609,20.0924437 123.783438,19.625586 C124.306084,19.2820493 124.393436,18.8122554 124.774409,18.3167696 C125.214107,17.7449424 125.461483,17.1466892 125.851265,16.5293506 C126.869397,14.9173703 128.523952,13.7795882 129.660266,12.2446835 C130.16456,11.5634824 129.023842,10.9065049 128.524686,11.5803656" id="Fill-47"></path>
                <path d="M122.507654,12.8965225 C122.208894,13.3831996 121.780207,13.6592036 121.377946,14.0445814 C120.911823,14.4908856 120.556541,15.0421593 120.152078,15.5405813 C119.82469,15.9450445 119.484824,16.3326245 119.194873,16.7657157 C118.827112,17.3147873 118.584141,17.9453388 118.097464,18.404856 C117.480859,18.98696 118.412372,19.916271 119.027509,19.3349011 C119.894425,18.5171661 120.441295,17.2802868 121.192231,16.3414331 C121.642939,15.7769464 122.047403,15.2073213 122.592804,14.7279847 C123.012682,14.3594901 123.348879,14.040177 123.643234,13.5608405 C124.087336,12.8370642 122.950288,12.1756825 122.507654,12.8965225" id="Fill-48"></path>
                <path d="M115.926135,15.1530013 C115.404223,16.0602908 114.654021,16.8185675 114.234143,17.7853153 C113.900883,18.5546028 115.033527,19.2247931 115.369723,18.4496332 C115.789601,17.4821514 116.539803,16.7238747 117.062449,15.8173193 C117.485263,15.0817982 116.348949,14.4189484 115.926135,15.1530013" id="Fill-49"></path>
                <path d="M112.165582,16.0933232 C112.048133,16.3436352 111.962983,16.6049581 111.855077,16.8589404 C111.808098,16.9697824 111.757448,17.0850287 111.689181,17.1848599 C111.665692,17.2208285 111.551179,17.3206597 111.618712,17.2957019 C111.285452,17.4182888 111.059364,17.7412721 111.159195,18.1046283 C111.247281,18.4254094 111.633393,18.6874664 111.968121,18.5634114 C112.799803,18.2573113 112.992859,17.4146185 113.301162,16.7576411 C113.452376,16.4361259 113.39145,16.0478119 113.065531,15.8569581 C112.779984,15.6903281 112.316797,15.7703399 112.165582,16.0933232" id="Fill-50"></path>
                <path d="M123.071407,32.1764236 C123.986771,33.6063588 125.322747,34.4674029 126.352623,35.7505275 C126.786449,36.2893224 127.239359,36.7253498 127.766409,37.1789945 C128.571665,37.8734086 129.027512,38.6779307 129.652925,39.5096127 C130.155752,40.1783349 131.297938,39.5235597 130.788505,38.8460288 C130.290817,38.183913 129.93994,37.434445 129.355634,36.8369259 C128.776466,36.243077 128.073977,35.8026452 127.547661,35.1574127 C126.490625,33.859607 125.128223,32.9515835 124.207721,31.5128397 C123.752608,30.8015424 122.614092,31.4599879 123.071407,32.1764236" id="Fill-51"></path>
                <path d="M118.657546,31.8446317 C118.802889,33.3310889 119.869467,34.0578013 120.78997,35.1133695 C121.891049,36.3766747 122.780722,37.8528552 123.926578,39.0787236 C124.505746,39.6982643 125.435057,38.7667511 124.856623,38.1486785 C123.916301,37.1422919 123.065534,35.9274342 122.238256,34.8263548 C121.563662,33.928608 120.088215,33.0191164 119.972969,31.8446317 C119.890755,31.0100134 118.574598,31.0012048 118.657546,31.8446317" id="Fill-52"></path>
                <path d="M115.460745,32.5963019 C115.41083,33.3083333 115.743356,33.9359486 116.177915,34.4776796 C116.384918,34.7360663 116.616879,34.9599524 116.851776,35.1919132 C117.201185,35.5369181 117.331846,35.9296364 117.618861,36.312812 C118.120219,36.9830024 119.262406,36.3282272 118.754441,35.6492282 C118.557715,35.3857032 118.458618,35.0766669 118.273636,34.8065354 C118.089389,34.538606 117.847886,34.3330712 117.617393,34.1069829 C117.204855,33.7032538 116.732859,33.2121723 116.776168,32.5963019 C116.834893,31.7514069 115.51947,31.7558113 115.460745,32.5963019" id="Fill-53"></path>
                <path d="M111.911599,32.7710065 C111.960047,32.9655305 112.050335,33.1417032 112.099517,33.3354932 C112.305786,34.1561644 113.574963,33.8082233 113.36796,32.986084 C113.318779,32.792294 113.22849,32.6153873 113.180043,32.4215973 C112.97304,31.6009261 111.704596,31.9488672 111.911599,32.7710065" id="Fill-54"></path>
                <path d="M172.054027,32.5074815 C172.026133,32.4817896 171.998973,32.4560978 171.971079,32.4296719 C171.700213,32.1756895 171.314835,32.1889025 171.041034,32.4296719 C170.432504,32.9655305 170.010423,33.6753597 169.411436,34.2405805 C168.642149,34.9658249 167.914702,35.7182291 167.218086,36.5117404 C165.890918,38.0253576 164.25765,39.1888316 162.850471,40.5930749 C162.250749,41.1920621 163.18006,42.1221072 163.780516,41.52312 C165.186961,40.1203448 166.820229,38.9532006 168.148131,37.4417855 C168.846215,36.6475402 169.57513,35.9010083 170.341481,35.1706256 C170.923585,34.6156816 171.3809,33.8801605 171.971079,33.359717 C171.661308,33.359717 171.350804,33.359717 171.041034,33.359717 C171.068928,33.3861429 171.096822,33.4118347 171.123982,33.4375266 C171.74132,34.0166944 172.672833,33.0888514 172.054027,32.5074815" id="Fill-55"></path>
                <path d="M174.799385,33.6070928 C174.839758,33.6159015 174.880865,33.6261782 174.921972,33.6349868 C174.79131,33.3134716 174.659915,32.9912224 174.528519,32.6689731 C173.558101,34.0313754 172.256625,35.2337542 171.117375,36.4588886 C170.380386,37.2516658 169.052484,38.059124 168.576818,39.0339464 C168.206855,39.791489 169.340967,40.4594772 169.712398,39.6975303 C169.956103,39.1991083 170.5984,38.835018 170.994054,38.4518424 C171.568818,37.8961643 172.113485,37.3206668 172.64861,36.7260839 C173.660869,35.6022488 174.785438,34.5672341 175.664833,33.3332911 C175.907071,32.9926905 175.658961,32.4560978 175.271381,32.3665433 C175.230274,32.3570006 175.189901,32.3474579 175.148794,32.3386493 C174.324452,32.1477955 173.973575,33.4162391 174.799385,33.6070928" id="Fill-56"></path>
                <path d="M178.166486,32.8289967 C177.47721,33.7274775 176.702784,34.5305315 175.964327,35.3849691 C175.482788,35.9428494 175.159805,36.7796697 174.453646,37.1055892 C173.685826,37.4601368 174.353081,38.5942487 175.11723,38.2411692 C175.928358,37.8675362 176.340896,37.0175029 176.867946,36.3575893 C177.648244,35.3790967 178.535714,34.4908926 179.302066,33.4925806 C179.817371,32.8216562 178.675184,32.1654128 178.166486,32.8289967" id="Fill-57"></path>
                <path d="M181.841889,33.0719682 C181.595247,33.2877798 181.483671,33.5806669 181.278136,33.8236384 C181.048378,34.094504 181.011675,34.4879564 181.278136,34.7536836 C181.513767,34.9893146 181.976955,35.0260172 182.208181,34.7536836 C182.41078,34.5151163 182.538505,34.2068141 182.771934,34.0020133 C183.409826,33.443399 182.476845,32.5155561 181.841889,33.0719682" id="Fill-58"></path>
            </g>
        </g>
    </g>
</svg>