<?xml version="1.0" encoding="UTF-8"?>
<svg width="724px" height="571px" viewBox="0 0 724 571" version="1.1" xmlns="http://www.w3.org/2000/svg" xmlns:xlink="http://www.w3.org/1999/xlink">
    <!-- Generator: Sketch 52.2 (67145) - http://www.bohemiancoding.com/sketch -->
    <title>Group 3 Copy 2</title>
    <desc>Created with Sketch.</desc>
    <g id="Page-1" stroke="none" stroke-width="1" fill="none" fill-rule="evenodd">
        <g id="4899917" transform="translate(-4797.000000, -2183.000000)">
            <g id="Group-3-Copy-2" transform="translate(4790.000000, 2183.000000)">
                <path d="M228.085434,119.614667 L290.632106,226.230372 L228.085434,335.768318 L107.577376,334.663502 L49.4117709,231.463552 L107.577376,121.167333 L228.085434,119.614667 Z M185.96582,262.457031 L190.887695,279 L223.290039,279 L185.624023,178.785156 L151.854492,178.785156 L114.188477,279 L145.838867,279 L150.692383,262.457031 L185.96582,262.457031 Z M179.47168,240.787109 L157.391602,240.787109 L168.397461,204.761719 L179.47168,240.787109 Z" id="Combined-Shape" fill="#A47948"></path>
                <path d="M7.109305,508.82 L17.819305,508.82 L17.819305,533.13 L45.954305,533.13 L45.954305,508.82 L56.664305,508.82 L56.664305,569 L45.954305,569 L45.954305,542.31 L17.819305,542.31 L17.819305,569 L7.109305,569 L7.109305,508.82 Z M113.080015,508.82 L122.345015,508.82 L148.270015,569 L136.030015,569 L130.420015,555.23 L104.325015,555.23 L98.885015,569 L86.900015,569 L113.080015,508.82 Z M126.680015,546.05 L117.415015,521.57 L107.980015,546.05 L126.680015,546.05 Z M220.410725,522.93 C218.82405,520.776656 216.755738,519.204172 214.205725,518.2125 C211.655712,517.220828 209.162404,516.725 206.725725,516.725 C203.609043,516.725 200.775738,517.291661 198.225725,518.425 C195.675712,519.558339 193.479901,521.116657 191.638225,523.1 C189.796549,525.083343 188.379897,527.406653 187.388225,530.07 C186.396553,532.733347 185.900725,535.623318 185.900725,538.74 C185.900725,542.026683 186.382387,545.029986 187.345725,547.75 C188.309063,550.470014 189.683216,552.80749 191.468225,554.7625 C193.253234,556.71751 195.392379,558.233328 197.885725,559.31 C200.379071,560.386672 203.184043,560.925 206.300725,560.925 C209.530741,560.925 212.392379,560.287506 214.885725,559.0125 C217.379071,557.737494 219.390717,556.051677 220.920725,553.955 L229.505725,559.99 C226.842378,563.33335 223.584078,565.925824 219.730725,567.7675 C215.877372,569.609176 211.372417,570.53 206.215725,570.53 C201.512368,570.53 197.191578,569.750841 193.253225,568.1925 C189.314872,566.634159 185.929072,564.452514 183.095725,561.6475 C180.262377,558.842486 178.0524,555.499186 176.465725,551.6175 C174.87905,547.735814 174.085725,543.443357 174.085725,538.74 C174.085725,533.923309 174.92155,529.574186 176.593225,525.6925 C178.2649,521.810814 180.559877,518.510014 183.478225,515.79 C186.396573,513.069986 189.839038,510.973341 193.805725,509.5 C197.772411,508.026659 202.079035,507.29 206.725725,507.29 C208.652401,507.29 210.664048,507.474165 212.760725,507.8425 C214.857402,508.210835 216.869049,508.777496 218.795725,509.5425 C220.722401,510.307504 222.535716,511.256661 224.235725,512.39 C225.935733,513.523339 227.380719,514.883325 228.570725,516.47 L220.410725,522.93 Z M260.421435,508.82 L271.131435,508.82 L271.131435,534.83 L271.386435,534.83 L296.546435,508.82 L310.996435,508.82 L282.861435,536.615 L312.866435,569 L297.821435,569 L271.386435,538.825 L271.131435,538.825 L271.131435,569 L260.421435,569 L260.421435,508.82 Z M361.122145,508.82 L370.387145,508.82 L396.312145,569 L384.072145,569 L378.462145,555.23 L352.367145,555.23 L346.927145,569 L334.942145,569 L361.122145,508.82 Z M374.722145,546.05 L365.457145,521.57 L356.022145,546.05 L374.722145,546.05 Z M433.602855,518.17 L415.157855,518.17 L415.157855,508.82 L462.757855,508.82 L462.757855,518.17 L444.312855,518.17 L444.312855,569 L433.602855,569 L433.602855,518.17 Z M494.013565,508.82 L504.723565,508.82 L504.723565,533.13 L532.858565,533.13 L532.858565,508.82 L543.568565,508.82 L543.568565,569 L532.858565,569 L532.858565,542.31 L504.723565,542.31 L504.723565,569 L494.013565,569 L494.013565,508.82 Z M578.224275,538.74 C578.224275,533.923309 579.031767,529.574186 580.646775,525.6925 C582.261783,521.810814 584.500094,518.510014 587.361775,515.79 C590.223456,513.069986 593.623422,510.973341 597.561775,509.5 C601.500128,508.026659 605.792585,507.29 610.439275,507.29 C615.142632,507.29 619.477589,508.026659 623.444275,509.5 C627.410961,510.973341 630.839261,513.069986 633.729275,515.79 C636.619289,518.510014 638.871767,521.810814 640.486775,525.6925 C642.101783,529.574186 642.909275,533.923309 642.909275,538.74 C642.909275,543.443357 642.101783,547.735814 640.486775,551.6175 C638.871767,555.499186 636.619289,558.842486 633.729275,561.6475 C630.839261,564.452514 627.410961,566.634159 623.444275,568.1925 C619.477589,569.750841 615.142632,570.53 610.439275,570.53 C605.792585,570.53 601.500128,569.750841 597.561775,568.1925 C593.623422,566.634159 590.223456,564.452514 587.361775,561.6475 C584.500094,558.842486 582.261783,555.499186 580.646775,551.6175 C579.031767,547.735814 578.224275,543.443357 578.224275,538.74 Z M589.869275,538.74 C589.869275,541.970016 590.365103,544.93082 591.356775,547.6225 C592.348447,550.31418 593.765099,552.651657 595.606775,554.635 C597.448451,556.618343 599.630096,558.162494 602.151775,559.2675 C604.673454,560.372506 607.46426,560.925 610.524275,560.925 C613.58429,560.925 616.389262,560.372506 618.939275,559.2675 C621.489288,558.162494 623.685099,556.618343 625.526775,554.635 C627.368451,552.651657 628.785103,550.31418 629.776775,547.6225 C630.768447,544.93082 631.264275,541.970016 631.264275,538.74 C631.264275,535.623318 630.768447,532.733347 629.776775,530.07 C628.785103,527.406653 627.382617,525.083343 625.569275,523.1 C623.755933,521.116657 621.574288,519.558339 619.024275,518.425 C616.474262,517.291661 613.640957,516.725 610.524275,516.725 C607.407593,516.725 604.588454,517.291661 602.066775,518.425 C599.545096,519.558339 597.377617,521.116657 595.564275,523.1 C593.750933,525.083343 592.348447,527.406653 591.356775,530.07 C590.365103,532.733347 589.869275,535.623318 589.869275,538.74 Z M677.564985,508.82 L691.759985,508.82 L719.724985,553.87 L719.894985,553.87 L719.894985,508.82 L730.604985,508.82 L730.604985,569 L717.004985,569 L688.444985,522.505 L688.274985,522.505 L688.274985,569 L677.564985,569 L677.564985,508.82 Z" id="HACKATHON" fill="#FFFFFF"></path>
                <path d="M442.085434,0.61466707 L504.632106,107.230372 L442.085434,216.768318 L321.577376,215.663502 L263.411771,112.463552 L321.577376,2.16733334 L442.085434,0.61466707 Z M326.342773,59.7851562 L326.342773,160 L351.704102,160 L351.704102,83.5742188 L371.254883,160 L394.155273,160 L413.774414,83.5742188 L413.774414,160 L439.067383,160 L439.067383,59.7851562 L398.461914,59.7851562 L382.807617,120.761719 L367.084961,59.7851562 L326.342773,59.7851562 Z" id="Combined-Shape" fill="#FFD85F"></path>
                <path d="M653.085434,120.614667 L715.632106,227.230372 L653.085434,336.768318 L532.577376,335.663502 L474.411771,232.463552 L532.577376,122.167333 L653.085434,120.614667 Z M539.393555,179.785156 L577.264648,280 L610.829102,280 L648.016602,179.785156 L616.571289,179.785156 L594.354492,251.904297 L571.795898,179.785156 L539.393555,179.785156 Z" id="Combined-Shape" fill="#006F62"></path>
                <g id="Group" transform="translate(270.000000, 232.000000)">
                    <path d="M70.987156,161.298838 C58.5834862,149.833157 51.1412844,134.044351 51.1412844,116 C51.1412844,97.9556494 58.3926606,82.1668427 70.2238532,70.7011616 C80.5284404,60.5512144 80.5284404,44.7624076 70.2238532,34.6124604 C59.9192661,24.4625132 43.8899083,24.4625132 33.5853211,34.6124604 C13.1669725,55.4762408 0,84.2344245 0,116 C0,147.765576 13.1669725,176.523759 34.3486239,197.38754 C44.653211,207.537487 60.6825688,207.537487 70.987156,197.38754 C80.3376147,187.237592 80.3376147,171.448786 70.987156,161.298838 Z" id="Path" fill="#FFD85F"></path>
                    <path d="M70.7011616,69.9314565 C82.1668427,57.6793146 98.1436114,50.5165239 116,50.5165239 C133.856389,50.5165239 149.833157,57.6793146 161.298838,69.3659731 C171.448786,79.5446756 187.237592,79.5446756 197.38754,69.3659731 C207.537487,59.1872705 207.537487,43.3537332 197.38754,33.1750306 C176.523759,13.00612 147.765576,0 116,0 C84.2344245,0 55.4762408,13.00612 34.6124604,33.9290086 C24.4625132,44.1077111 24.4625132,59.9412485 34.6124604,70.119951 C44.7624076,79.1676867 60.5512144,79.1676867 70.7011616,69.9314565 Z" id="Path" fill="#A47948"></path>
                    <path d="M161.298838,161.068543 C149.833157,173.320685 133.856389,180.483476 116,180.483476 C98.1436114,180.483476 82.1668427,173.320685 70.7011616,161.634027 C60.5512144,151.455324 44.7624076,151.455324 34.6124604,161.634027 C24.4625132,171.812729 24.4625132,187.646267 34.6124604,197.824969 C55.4762408,217.99388 84.2344245,231 116,231 C147.765576,231 176.523759,217.99388 197.38754,197.070991 C207.537487,186.892289 207.537487,171.058752 197.38754,160.880049 C187.237592,151.832313 171.448786,151.832313 161.298838,161.068543 Z" id="Path" fill="#006F62"></path>
                    <circle id="Oval" fill="#623E1C" cx="53" cy="52" r="26"></circle>
                    <circle id="Oval" fill="#0E9081" cx="53" cy="179" r="26"></circle>
                </g>
            </g>
        </g>
    </g>
</svg>