<?xml version="1.0" encoding="UTF-8"?>
<svg width="724px" height="571px" viewBox="0 0 724 571" version="1.1" xmlns="http://www.w3.org/2000/svg" xmlns:xlink="http://www.w3.org/1999/xlink">
    <!-- Generator: Sketch 52.2 (67145) - http://www.bohemiancoding.com/sketch -->
    <title>Group 3 Copy 2</title>
    <desc>Created with Sketch.</desc>
    <g id="Page-1" stroke="none" stroke-width="1" fill="none" fill-rule="evenodd">
        <g id="4899917" transform="translate(-5035.000000, -3637.000000)">
            <g id="Group-3-Copy-2" transform="translate(5029.000000, 3637.000000)">
                <path d="M228.085434,119.614667 L290.632106,226.230372 L228.085434,335.768318 L107.577376,334.663502 L49.4117709,231.463552 L107.577376,121.167333 L228.085434,119.614667 Z M185.96582,262.457031 L190.887695,279 L223.290039,279 L185.624023,178.785156 L151.854492,178.785156 L114.188477,279 L145.838867,279 L150.692383,262.457031 L185.96582,262.457031 Z M179.47168,240.787109 L157.391602,240.787109 L168.397461,204.761719 L179.47168,240.787109 Z" id="Combined-Shape" fill="#A47948"></path>
                <text id="HACKATHON" font-family="AvenirNext-DemiBold, Avenir Next" font-size="85" font-weight="500" letter-spacing="24.28571" fill="#FFFFFF">
                    <tspan x="0.479305" y="569">HACKATHON</tspan>
                </text>
                <path d="M442.085434,0.61466707 L504.632106,107.230372 L442.085434,216.768318 L321.577376,215.663502 L263.411771,112.463552 L321.577376,2.16733334 L442.085434,0.61466707 Z M326.342773,59.7851562 L326.342773,160 L351.704102,160 L351.704102,83.5742188 L371.254883,160 L394.155273,160 L413.774414,83.5742188 L413.774414,160 L439.067383,160 L439.067383,59.7851562 L398.461914,59.7851562 L382.807617,120.761719 L367.084961,59.7851562 L326.342773,59.7851562 Z" id="Combined-Shape" fill="#FFD85F"></path>
                <path d="M653.085434,120.614667 L715.632106,227.230372 L653.085434,336.768318 L532.577376,335.663502 L474.411771,232.463552 L532.577376,122.167333 L653.085434,120.614667 Z M539.393555,179.785156 L577.264648,280 L610.829102,280 L648.016602,179.785156 L616.571289,179.785156 L594.354492,251.904297 L571.795898,179.785156 L539.393555,179.785156 Z" id="Combined-Shape" fill="#006F62"></path>
                <g id="Group" transform="translate(270.000000, 232.000000)">
                    <path d="M70.987156,161.298838 C58.5834862,149.833157 51.1412844,134.044351 51.1412844,116 C51.1412844,97.9556494 58.3926606,82.1668427 70.2238532,70.7011616 C80.5284404,60.5512144 80.5284404,44.7624076 70.2238532,34.6124604 C59.9192661,24.4625132 43.8899083,24.4625132 33.5853211,34.6124604 C13.1669725,55.4762408 0,84.2344245 0,116 C0,147.765576 13.1669725,176.523759 34.3486239,197.38754 C44.653211,207.537487 60.6825688,207.537487 70.987156,197.38754 C80.3376147,187.237592 80.3376147,171.448786 70.987156,161.298838 Z" id="Path" fill="#FFD85F"></path>
                    <path d="M70.7011616,69.9314565 C82.1668427,57.6793146 98.1436114,50.5165239 116,50.5165239 C133.856389,50.5165239 149.833157,57.6793146 161.298838,69.3659731 C171.448786,79.5446756 187.237592,79.5446756 197.38754,69.3659731 C207.537487,59.1872705 207.537487,43.3537332 197.38754,33.1750306 C176.523759,13.00612 147.765576,0 116,0 C84.2344245,0 55.4762408,13.00612 34.6124604,33.9290086 C24.4625132,44.1077111 24.4625132,59.9412485 34.6124604,70.119951 C44.7624076,79.1676867 60.5512144,79.1676867 70.7011616,69.9314565 Z" id="Path" fill="#A47948"></path>
                    <path d="M161.298838,161.068543 C149.833157,173.320685 133.856389,180.483476 116,180.483476 C98.1436114,180.483476 82.1668427,173.320685 70.7011616,161.634027 C60.5512144,151.455324 44.7624076,151.455324 34.6124604,161.634027 C24.4625132,171.812729 24.4625132,187.646267 34.6124604,197.824969 C55.4762408,217.99388 84.2344245,231 116,231 C147.765576,231 176.523759,217.99388 197.38754,197.070991 C207.537487,186.892289 207.537487,171.058752 197.38754,160.880049 C187.237592,151.832313 171.448786,151.832313 161.298838,161.068543 Z" id="Path" fill="#006F62"></path>
                    <circle id="Oval" fill="#623E1C" cx="53" cy="52" r="26"></circle>
                    <circle id="Oval" fill="#0E9081" cx="53" cy="179" r="26"></circle>
                </g>
            </g>
        </g>
    </g>
</svg>