<?xml version="1.0" encoding="UTF-8"?>
<svg width="538px" height="163px" viewBox="0 0 538 163" version="1.1" xmlns="http://www.w3.org/2000/svg" xmlns:xlink="http://www.w3.org/1999/xlink">
    <!-- Generator: Sketch 52.2 (67145) - http://www.bohemiancoding.com/sketch -->
    <title>Group 5</title>
    <desc>Created with Sketch.</desc>
    <g id="Page-1" stroke="none" stroke-width="1" fill="none" fill-rule="evenodd">
        <g id="4899917" transform="translate(-4788.000000, -1221.000000)">
            <g id="Group-5" transform="translate(4788.000000, 1221.000000)">
                <g id="Group" transform="translate(0.000000, 12.000000)">
                    <path d="M42.3192661,96.6999612 C34.9247706,89.9656766 30.4880734,80.6922355 30.4880734,70.0940171 C30.4880734,59.4957987 34.8110092,50.2223576 41.8642202,43.488073 C48.0073394,37.5265751 48.0073394,28.2531341 41.8642202,22.2916362 C35.7211009,16.3301384 26.1651376,16.3301384 20.0220183,22.2916362 C7.84954128,34.5458262 0,51.4367368 0,70.0940171 C0,88.7512974 7.84954128,105.642208 20.4770642,117.896398 C26.6201835,123.857896 36.1761468,123.857896 42.3192661,117.896398 C47.893578,111.9349 47.893578,102.661459 42.3192661,96.6999612 Z" id="Path" fill="#FFD85F"></path>
                    <path d="M42.1380676,42.0799674 C49.1269799,34.7074663 58.8656283,30.3973888 69.75,30.3973888 C80.6343717,30.3973888 90.3730201,34.7074663 97.3619324,41.7396981 C103.548838,47.8645451 113.172914,47.8645451 119.35982,41.7396981 C125.546727,35.6148511 125.546727,26.0873113 119.35982,19.9624643 C106.642291,7.82619339 89.1127244,0 69.75,0 C50.3872756,0 32.8577086,7.82619339 20.1401795,20.4161567 C13.9532735,26.5410037 13.9532735,36.0685435 20.1401795,42.1933905 C26.3270855,47.6376989 35.9511616,47.6376989 42.1380676,42.0799674 Z" id="Path" fill="#3BB4E7"></path>
                    <path d="M97.3619324,96.9200326 C90.3730201,104.292534 80.6343717,108.602611 69.75,108.602611 C58.8656283,108.602611 49.1269799,104.292534 42.1380676,97.2603019 C35.9511616,91.1354549 26.3270855,91.1354549 20.1401795,97.2603019 C13.9532735,103.385149 13.9532735,112.912689 20.1401795,119.037536 C32.8577086,131.173807 50.3872756,139 69.75,139 C89.1127244,139 106.642291,131.173807 119.35982,118.583843 C125.546727,112.458996 125.546727,102.931457 119.35982,96.8066095 C113.172914,91.3623011 103.548838,91.3623011 97.3619324,96.9200326 Z" id="Path" fill="#ED5C68"></path>
                    <ellipse id="Oval" fill="#308BC5" cx="31.5961538" cy="32.0769231" rx="14.9038462" ry="14.2564103"></ellipse>
                    <ellipse id="Oval" fill="#D5465F" cx="31.5961538" cy="106.923077" rx="14.9038462" ry="14.2564103"></ellipse>
                </g>
                <g id="nextjs-2" transform="translate(264.000000, 0.000000)" fill="#000000" fill-rule="nonzero">
                    <path d="M64.6522266,42.5126763 L116.331195,42.5126763 L116.331195,46.5633622 L69.3894297,46.5633622 L69.3894297,77.0474646 L113.532328,77.0474646 L113.532328,81.0976227 L69.3894297,81.0976227 L69.3894297,114.566441 L116.869562,114.566441 L116.869562,118.616599 L64.6522266,118.616599 L64.6522266,42.5126763 Z M120.961367,42.5126763 L126.45207,42.5126763 L150.78402,75.9814946 L175.654336,42.5121486 L209.482098,0 L153.906121,79.4991955 L182.545008,118.616599 L176.838637,118.616599 L150.78402,83.0163687 L124.621301,118.616599 L119.023031,118.616599 L147.877051,79.4986678 L120.961367,42.5126763 Z M184.590375,46.5633622 L184.590375,42.5121486 L243.48325,42.5121486 L243.48325,46.5628345 L216.351363,46.5628345 L216.351363,118.616071 L211.61416,118.616071 L211.61416,46.5633622 L184.590375,46.5633622 Z M0,42.5121486 L5.92150391,42.5121486 L87.5756445,163 L53.8324375,118.616071 L4.95233594,48.2683864 L4.73720313,118.617127 L1.04569131e-14,118.617127 L0,42.5121486 Z M243.005891,113.343214 C242.037793,113.343214 241.312121,112.604423 241.312121,111.648216 C241.312121,110.693065 242.037793,109.953219 243.005891,109.953219 C243.985227,109.953219 244.69966,110.692537 244.69966,111.648216 C244.69966,112.603895 243.985227,113.343214 243.005891,113.343214 Z M247.66068,108.884082 L250.195715,108.884082 C250.229965,110.237653 251.232312,111.147949 252.707203,111.147949 C254.354949,111.147949 255.288262,110.169579 255.288262,108.337905 L255.288262,96.7336079 L257.86932,96.7336079 L257.86932,108.348987 C257.86932,111.648216 255.93366,113.548492 252.730215,113.548492 C249.722637,113.548492 247.66068,111.705209 247.66068,108.883555 L247.66068,108.884082 Z M261.245086,108.736324 L263.803133,108.736324 C264.022012,110.294646 265.565937,111.284098 267.790047,111.284098 C269.863777,111.284098 271.384691,110.226044 271.384691,108.770097 C271.384691,107.518902 270.416594,106.767974 268.216031,106.256097 L266.07273,105.74422 C263.065152,105.049757 261.694617,103.616502 261.694617,101.204877 C261.694617,98.2813751 264.114059,96.3357161 267.743488,96.3357161 C271.119254,96.3357161 273.585254,98.2808474 273.735098,101.045509 L271.223074,101.045509 C270.981184,99.5325706 269.644363,98.5879734 267.708703,98.5879734 C265.669758,98.5879734 264.310461,99.555262 264.310461,101.0339 C264.310461,102.205411 265.185441,102.877183 267.351754,103.37745 L269.183594,103.821253 C272.594145,104.606482 274,105.971662 274,108.44028 C274,111.580142 271.534535,113.548492 267.59418,113.548492 C263.906953,113.548492 261.42918,111.670908 261.245086,108.735796 L261.245086,108.736324 Z" id="Shape"></path>
                </g>
                <text id="+" font-family="AlBayan, Al Bayan" font-size="70" font-weight="normal" fill="#000000">
                    <tspan x="185.295" y="88">+</tspan>
                </text>
            </g>
        </g>
    </g>
</svg>