<svg width="140" height="60" viewBox="0 0 140 60" fill="none" xmlns="http://www.w3.org/2000/svg">
<path d="M91.6598 25.7237C91.0409 25.714 90.5515 25.2034 90.5612 24.5819C90.5719 23.9604 91.0762 23.467 91.694 23.4767C92.3119 23.4864 92.8065 23.9938 92.7958 24.6164C92.7862 25.2379 92.2776 25.7334 91.6598 25.7237ZM91.6908 23.6631C91.1758 23.6545 90.7539 24.067 90.7453 24.5841C90.7378 25.1022 91.1469 25.5298 91.6619 25.5384C92.1769 25.546 92.602 25.1323 92.6095 24.6131C92.6192 24.095 92.2059 23.6706 91.6908 23.6631ZM91.1972 24.0056L91.7283 24.0142C92.0249 24.0185 92.1223 24.206 92.1202 24.3374C92.1181 24.5324 91.9756 24.6702 91.7722 24.6799V24.6864C91.875 24.7241 91.9489 24.8296 92.0452 24.9934L92.1877 25.2303L91.951 25.226L91.8482 25.0354C91.7005 24.7618 91.6448 24.709 91.4949 24.7068L91.3792 24.7047L91.3717 25.2174L91.179 25.2142L91.1972 24.0056ZM91.663 24.541C91.8118 24.5431 91.9125 24.4871 91.9146 24.3611C91.9157 24.2512 91.8289 24.1801 91.7015 24.178L91.3889 24.1737L91.3835 24.5367L91.663 24.541ZM41.3288 0.025971C41.2945 -0.103288 40.1531 0.259714 40.2334 0.89739C40.4615 2.03594 40.5664 3.76586 40.1509 4.74284C39.1905 6.98655 37.595 8.95344 36.4172 11.1692C31.3161 20.772 25.2503 26.3592 19.4136 30.1282C18.9767 30.4104 16.7741 31.1935 16.3747 30.3813C15.1562 27.9168 20.6792 22.364 21.4683 20.1332C21.4962 19.8155 21.5187 19.4923 21.5454 19.1692C21.4373 18.9365 21.3238 18.6995 21.2156 18.4658C20.904 18.1922 20.4361 18.1653 20.0003 18.2008C19.9307 18.2138 19.8558 18.2224 19.7798 18.2342C19.7048 18.2579 19.6234 18.2827 19.5453 18.3075C17.9691 18.9301 17.136 20.6987 15.8758 21.8136C14.2653 23.2279 12.4815 24.555 10.7179 25.6881C9.70713 26.3366 8.18558 27.4805 7.65555 27.8888C7.12446 28.297 5.33843 29.5713 4.1274 29.2083C3.52885 29.0306 3.46246 28.2582 3.59524 27.725C4.0653 25.7948 6.14043 24.0627 7.52813 22.7217C8.98972 21.302 10.3656 19.3631 11.3775 17.6375C11.8133 16.8835 12.4333 16.0874 12.4161 15.1719C12.3391 11.4837 7.80225 16.2296 7.16193 17.2766C6.89638 17.6859 6.6833 17.9143 6.2111 18.5983C4.05673 22.1529 -2.89463 29.1577 2.51805 32.6713C3.32433 33.1593 4.50324 33.3521 6.45844 32.1909C7.9286 31.3174 12.5564 28.0406 13.9559 28.3627C13.7439 28.3789 13.9548 28.8399 13.8949 29.0941C13.8349 29.3472 13.6871 30.4481 13.6636 30.6829C13.4205 33.0904 15.32 32.7252 16.8684 33.2078C17.7849 33.3273 21.7339 32.7252 26.609 28.0999C28.6103 26.2041 30.5152 24.5981 33.3088 21.0047C36.6024 16.765 35.4749 17.2034 38.4966 12.9885C39.2354 11.8381 39.971 10.6866 40.7056 9.53403C41.7614 8.00554 43.2037 6.31656 43.6855 4.55541C44.1224 2.94614 43.0206 0.139072 41.3288 0.025971ZM39.1883 38.5903C37.9248 47.0148 35.1505 52.4512 26.866 55.4629C26.3114 55.6719 24.3669 56.2158 24.0842 56.2287C19.814 56.5616 16.6628 56.6521 13.4923 54.4837C12.823 54.0249 12.1399 52.4996 12.2844 51.5453C12.7085 48.665 15.0299 46.7778 17.0515 44.7581C19.8804 41.9187 22.8079 39.312 25.9195 36.9196C27.7976 35.5118 29.6736 34.0975 31.5527 32.6897C32.1909 32.6401 32.8269 32.8803 33.5626 32.7747C35.0263 32.5615 37.9891 31.3249 39.1316 30.4481C39.1851 30.2962 40.0032 30.0172 40.107 30.3716C40.1938 30.8035 40.2741 31.2312 40.3587 31.661C40.3458 34.105 39.5277 36.2981 39.1883 38.5903ZM91.2614 33.0764C91.9157 32.9643 101.164 30.419 105.422 30.8682C107.361 30.8682 113.077 32.653 114.91 32.7597C116.432 32.9396 121.941 33.0559 122.058 33.0559C123.875 33.0591 125.799 33.183 126.982 31.508C127.236 31.1418 126.937 30.8488 126.605 30.7422C125.059 30.2294 122.065 30.3975 121.274 30.531C113.875 31.1095 111.884 29.3106 104.917 28.813C103.044 28.6783 91.4424 30.9231 91.0837 30.9899C91.0837 30.9899 89.6028 31.2872 88.062 31.7041C86.5212 32.122 86.4045 30.6323 86.3435 30.1551C86.2846 29.679 86.9388 26.6856 87.1155 25.9833C87.471 24.5528 86.7589 23.5392 86.1068 23.4789C85.3958 23.4153 84.0338 24.3148 83.4995 24.7909C82.9674 25.268 79.0569 27.948 77.9326 28.9034C76.8041 29.8567 76.4496 28.6051 76.7462 28.129C77.0418 27.6518 77.6928 25.923 78.0494 24.9094C78.4048 23.8968 77.6928 23.2408 77.1017 22.9425C76.5085 22.6441 75.2654 23.4196 74.9099 23.7783C74.5533 24.1349 72.657 25.4469 71.4149 26.3409C70.1696 27.2339 66.8535 29.0812 65.3705 29.7975C63.8896 30.5116 63.8896 28.7246 64.0085 27.8909C64.1284 27.0583 64.4796 25.7194 64.6617 24.2544C64.8983 22.3479 63.0609 22.7647 62.351 23.1234C61.6389 23.4789 55.8922 27.5333 55.1233 28.13C54.3535 28.7257 54.3535 27.7121 54.4124 27.3545C54.4713 26.9969 54.5901 26.2817 55.2411 24.8523C55.8922 23.4218 55.36 23.0039 55.2411 22.349C55.1233 21.693 53.7014 21.9913 52.576 22.4674C51.9539 22.7324 45.1032 25.2228 44.8494 25.2821C44.6342 25.2993 44.4147 25.3165 44.1984 25.3327C44.1973 25.2993 44.0806 25.268 44.0774 25.1226C44.0528 24.3665 43.7337 23.7999 42.8856 23.9216C41.1071 24.165 40.1424 25.7926 38.8435 26.8418C37.02 28.3132 35.1505 29.8998 33.0561 30.9242C32.4158 31.2667 32.5378 29.777 32.9929 29.2298C35.8615 25.7883 34.7682 26.9624 36.1324 25.4942C37.1603 24.1575 38.5469 22.6947 39.0673 21.121C39.5385 19.6787 38.8339 17.3348 37.3049 17.1506C36.7395 17.1226 36.324 17.6019 36.3273 18.0145C36.4011 19.027 36.2555 20.227 35.8508 21.1188C34.9363 23.1374 33.6332 25.0343 32.1652 26.7718C30.0408 29.2869 29.9273 31.4057 29.9273 31.4057C29.9273 31.4057 26.653 33.5815 25.3766 34.7082C23.3111 36.4242 21.2424 38.1401 19.1737 39.8581C15.6027 43.0993 6.81394 49.085 9.73282 54.9081C10.3496 56.1426 11.3732 57.2488 12.626 57.922C14.5448 58.955 17.0847 60.0699 19.4564 59.8846C19.6116 59.9309 19.8269 59.96 20.0025 59.9622C21.8752 59.9934 23.9289 59.751 25.6325 59.2028C36.9322 55.5566 44.0431 43.1499 43.1084 31.019C43.0548 30.335 43.4371 29.5304 43.9468 29.0704C45.1053 28.0266 49.6154 25.156 51.0352 24.9104C52.7527 24.6121 51.9828 27.2349 51.7462 28.0697C51.5106 28.9045 50.7986 30.0959 50.6808 31.1105C50.563 32.1231 51.5941 32.5733 52.3394 32.8383C53.3459 33.1959 54.8267 31.885 55.3022 31.4682C55.7754 31.0502 60.0981 27.2963 60.8701 26.7588C61.64 26.2235 61.7578 27.4159 61.64 27.9512C61.5211 28.4887 61.1656 29.9192 61.1057 30.8132C61.0479 31.7062 61.2245 32.6595 61.9944 33.1367C62.7643 33.6138 63.5352 33.2573 64.424 32.7198C65.3127 32.1845 70.8806 28.4898 71.355 28.2507C71.8304 28.0126 73.1924 26.9387 74.0801 26.7007C74.9677 26.4615 74.9099 27.4751 74.4955 28.3703C74.3424 28.6988 73.9623 30.3975 73.7845 31.2312C73.6068 32.0649 73.5468 32.9589 74.5544 33.7937C75.3328 34.439 77.1606 32.6606 77.636 32.2437C78.1104 31.8268 82.1953 28.1322 82.9673 27.655C83.7351 27.1778 84.0927 28.3487 83.7983 29.4431C83.4406 30.7551 83.3635 31.9809 83.6002 32.4279C84.1323 33.4415 85.1763 33.9758 87.6466 33.7334C88.0631 33.6914 91.2614 33.0764 91.2614 33.0764ZM129.57 31.9809C129.829 32.7349 130.269 33.3187 131.499 33.5492C132.063 33.6548 132.775 33.3155 132.873 32.9439C133.008 32.4538 133.267 32.2006 133.154 31.5813C133.009 30.8046 132.454 30.2434 131.222 30.014C130.661 29.9095 129.948 30.2467 129.849 30.6204C129.718 31.1084 129.364 31.3809 129.57 31.9809ZM58.1525 50.8699V43.64H59.1697V49.9392H62.5908V50.8699H58.1525ZM84.9033 50.9216L81.7392 43.64H82.8132L85.0532 48.7974L87.3393 43.64H88.3972L85.171 50.9216H84.9033ZM90.6393 50.8699V43.64H94.9598V44.5599H91.6566V46.7508H94.8667V47.6858H91.6566V49.9392H95.0669V50.8699H90.6393ZM103.71 47.325V50.3841C103.238 50.5909 102.789 50.7449 102.367 50.8462C101.944 50.9474 101.541 50.9991 101.157 50.9991C100.726 50.9991 100.32 50.9453 99.9399 50.8387C99.5598 50.732 99.2108 50.5737 98.8917 50.3636C98.3574 50.0125 97.9419 49.5633 97.6464 49.0172C97.3498 48.4711 97.202 47.8743 97.202 47.2269C97.202 46.7411 97.2995 46.2704 97.4943 45.8137C97.6892 45.357 97.9665 44.9585 98.3263 44.617C98.7064 44.2486 99.1347 43.9739 99.6101 43.7951C100.087 43.6163 100.619 43.5258 101.208 43.5258C101.608 43.5258 102.01 43.5743 102.412 43.6702C102.815 43.766 103.226 43.9115 103.648 44.1043V45.2256C103.193 44.9778 102.765 44.7947 102.364 44.6752C101.964 44.5567 101.575 44.4974 101.198 44.4974C100.359 44.4974 99.6658 44.7603 99.1176 45.2859C98.5694 45.8116 98.2953 46.4697 98.2953 47.2625C98.2953 48.0445 98.5662 48.6983 99.1069 49.224C99.6476 49.7496 100.328 50.0125 101.147 50.0125C101.393 50.0125 101.64 49.9855 101.887 49.9328C102.133 49.8789 102.388 49.797 102.652 49.6872V48.2869H101.301V47.326H103.71V47.325ZM105.512 50.8699L108.625 43.64H109.374L112.529 50.8699H111.466L110.54 48.7404H107.479L106.565 50.8699H105.512ZM107.88 47.8108H110.12L108.985 45.2062L107.88 47.8108ZM114.171 50.3065V48.9429C114.497 49.3188 114.807 49.5892 115.103 49.754C115.4 49.9198 115.715 50.0017 116.051 50.0017C116.407 50.0017 116.688 49.9188 116.893 49.7507C117.099 49.5838 117.202 49.3576 117.202 49.071C117.202 48.8362 117.132 48.6305 116.994 48.4538C116.855 48.2761 116.524 48.0208 116 47.6869C115.188 47.1602 114.679 46.7519 114.471 46.4622C114.265 46.1724 114.161 45.8288 114.161 45.4292C114.161 44.868 114.359 44.407 114.754 44.0472C115.15 43.6874 115.659 43.5075 116.282 43.5075C116.559 43.5075 116.832 43.5485 117.102 43.6292C117.371 43.71 117.642 43.835 117.916 44.0041V45.1771C117.601 44.9218 117.31 44.7376 117.042 44.6213C116.775 44.5061 116.508 44.4479 116.241 44.4479C115.919 44.4479 115.657 44.5276 115.453 44.6881C115.249 44.8486 115.147 45.0543 115.147 45.3053C115.147 45.664 115.57 46.1078 116.416 46.6388L116.57 46.7315C117.258 47.1623 117.708 47.5426 117.921 47.8711C118.133 48.2007 118.239 48.6079 118.239 49.0937C118.239 49.6452 118.041 50.1008 117.644 50.4606C117.247 50.8203 116.738 51.0002 116.118 51.0002C115.73 51.0002 115.381 50.9453 115.07 50.8343C114.758 50.7234 114.458 50.5478 114.171 50.3065ZM64.0867 50.8699L67.1994 43.64H67.9489L71.1033 50.8699H70.0401L69.116 48.7404H66.0547L65.1403 50.8699H64.0867ZM66.4552 47.8108H68.6952L67.5602 45.2062L66.4552 47.8108ZM72.7459 50.3065V48.9429C73.0714 49.3188 73.3819 49.5892 73.6785 49.754C73.9751 49.9198 74.291 50.0017 74.6261 50.0017C74.9827 50.0017 75.2632 49.9188 75.4688 49.7507C75.6744 49.5838 75.7772 49.3576 75.7772 49.071C75.7772 48.8362 75.7076 48.6305 75.5695 48.4538C75.4303 48.2761 75.0994 48.0208 74.5758 47.6869C73.7642 47.1602 73.2545 46.7519 73.0478 46.4622C72.8401 46.1724 72.7373 45.8288 72.7373 45.4292C72.7373 44.868 72.9354 44.407 73.3305 44.0472C73.7256 43.6874 74.2353 43.5075 74.8585 43.5075C75.1358 43.5075 75.4089 43.5485 75.6776 43.6292C75.9464 43.71 76.2173 43.835 76.4914 44.0041V45.1771C76.1766 44.9218 75.8854 44.7376 75.6177 44.6213C75.3511 44.5061 75.0834 44.4479 74.8167 44.4479C74.4944 44.4479 74.2321 44.5276 74.0287 44.6881C73.8252 44.8486 73.7224 45.0543 73.7224 45.3053C73.7224 45.664 74.1454 46.1078 74.9913 46.6388L75.1455 46.7315C75.834 47.1623 76.2837 47.5426 76.4968 47.8711C76.7088 48.2007 76.8148 48.6079 76.8148 49.0937C76.8148 49.6452 76.6167 50.1008 76.2184 50.4606C75.8211 50.8203 75.3125 51.0002 74.6925 51.0002C74.306 51.0002 73.9558 50.9453 73.6443 50.8343C73.3337 50.7234 73.0339 50.5478 72.7459 50.3065Z" fill="white"/>
</svg>
